<?xml version="1.0" standalone="no"?>
<!-- generated by fan-chart.py 0.1.12 -->
<svg width="600pt" height="600pt"
 viewBox="0.00 0.00 600.00 600.00"
 version="1.1"
 xmlns="http://www.w3.org/2000/svg"
 xmlns:xlink="http://www.w3.org/1999/xlink">
<g transform="translate(300.0,300.0) rotate(-76.2,0,0)">
<path style="stroke:grey; fill:mediumturquoise;"
d="M56.33,-13.83
A58.0,58.0 0 0 1 56.33,13.83
L112.65,27.67
A116.0,116.0 0 0 0 112.65,-27.67
z" />
<defs>
  <path id="texti3" d="M104.2,25.59 A107.3,107.3 0 0 0 104.2,-25.59" />
</defs>
<text font-size="16" font-family="Times New Roman,serif">
  <textPath href="#texti3" startOffset="23.14%">Alice</textPath>
</text>
</g>
<g transform="translate(300.0,300.0) rotate(-48.55,0,0)">
<path style="stroke:grey; fill:thistle;"
d="M56.31,-13.88
A58.0,58.0 0 0 1 56.31,13.88
L112.63,27.77
A116.0,116.0 0 0 0 112.63,-27.77
z" />
<defs>
  <path id="texti4" d="M104.18,25.69 A107.3,107.3 0 0 0 104.18,-25.69" />
</defs>
<text font-size="16" font-family="Times New Roman,serif">
  <textPath href="#texti4" startOffset="33.2%">Bob</textPath>
</text>
</g>
<g transform="translate(300.0,300.0) rotate(-20.85,0,0)">
<path style="stroke:grey; fill:mistyrose;"
d="M56.31,-13.88
A58.0,58.0 0 0 1 56.31,13.88
L112.63,27.77
A116.0,116.0 0 0 0 112.63,-27.77
z" />
<defs>
  <path id="texti5" d="M104.18,25.69 A107.3,107.3 0 0 0 104.18,-25.69" />
</defs>
<text font-size="16" font-family="Times New Roman,serif">
  <textPath href="#texti5" startOffset="23.23%">Carol</textPath>
</text>
</g>
<g transform="translate(300.0,300.0) rotate(-20.9,0,0)">
<path style="stroke:grey; fill:mistyrose;"
d="M112.65,-27.67
A116.0,116.0 0 0 1 112.65,27.67
L168.98,41.5
A174.0,174.0 0 0 0 168.98,-41.5
z" />
<defs>
  <path id="texti8" d="M160.53,39.43 A165.3,165.3 0 0 0 160.53,-39.43" />
</defs>
<text font-size="16" font-family="Times New Roman,serif">
  <textPath href="#texti8" startOffset="32.56%">Chris</textPath>
</text>
</g>
<g transform="translate(300.0,300.0) rotate(20.7,0,0)">
<path style="stroke:grey; fill:lightseagreen;"
d="M51.35,-26.96
A58.0,58.0 0 0 1 51.35,26.96
L102.71,53.92
A116.0,116.0 0 0 0 102.71,-53.92
z" />
<defs>
  <path id="texti9" d="M95.0,49.88 A107.3,107.3 0 0 0 95.0,-49.88" />
</defs>
<text font-size="16" font-family="Times New Roman,serif">
  <textPath href="#texti9" startOffset="36.62%">David</textPath>
</text>
</g>
<g transform="translate(300.0,300.0) rotate(6.8,0,0)">
<path style="stroke:grey; fill:lightseagreen;"
d="M112.65,-27.67
A116.0,116.0 0 0 1 112.65,27.67
L168.98,41.5
A174.0,174.0 0 0 0 168.98,-41.5
z" />
<defs>
  <path id="texti11" d="M160.53,39.43 A165.3,165.3 0 0 0 160.53,-39.43" />
</defs>
<text font-size="16" font-family="Times New Roman,serif">
  <textPath href="#texti11" startOffset="26.07%">Daphnie</textPath>
</text>
</g>
<g transform="translate(300.0,300.0) rotate(6.8,0,0)">
<path style="stroke:grey; fill:lightseagreen;"
d="M168.98,-41.5
A174.0,174.0 0 0 1 168.98,41.5
L225.3,55.34
A232.0,232.0 0 0 0 225.3,-55.34
z" />
<defs>
  <path id="texti14" d="M216.85,53.26 A223.3,223.3 0 0 0 216.85,-53.26" />
</defs>
<text font-size="16" font-family="Times New Roman,serif">
  <textPath href="#texti14" startOffset="34.69%">Dennis</textPath>
</text>
</g>
<g transform="translate(300.0,300.0) rotate(6.8,0,0)">
<path style="stroke:grey; fill:lightseagreen;"
d="M225.3,-55.34
A232.0,232.0 0 0 1 225.3,55.34
L281.63,69.17
A290.0,290.0 0 0 0 281.63,-69.17
z" />
<defs>
  <path id="texti16" d="M273.18,67.1 A281.3,281.3 0 0 0 273.18,-67.1" />
</defs>
<text font-size="16" font-family="Times New Roman,serif">
  <textPath href="#texti16" startOffset="41.66%">Demi</textPath>
</text>
</g>
<g transform="translate(300.0,300.0) rotate(34.45,0,0)">
<path style="stroke:grey; fill:khaki;"
d="M112.63,-27.77
A116.0,116.0 0 0 1 112.63,27.77
L168.94,41.65
A174.0,174.0 0 0 0 168.94,-41.65
z" />
<defs>
  <path id="texti12" d="M160.49,39.57 A165.3,165.3 0 0 0 160.49,-39.57" />
</defs>
<text font-size="16" font-family="Times New Roman,serif">
  <textPath href="#texti12" startOffset="35.86%">Drew</textPath>
</text>
</g>
<g transform="translate(300.0,300.0) rotate(103.8,0,0)">
<path style="stroke:grey; fill:lightblue;"
d="M32.93,-47.74
A58.0,58.0 0 0 1 32.93,47.74
L65.87,95.48
A116.0,116.0 0 0 0 65.87,-95.48
z" />
<defs>
  <path id="texti17" d="M60.93,88.32 A107.3,107.3 0 0 0 60.93,-88.32" />
</defs>
<text font-size="16" font-family="Times New Roman,serif">
  <textPath href="#texti17" startOffset="47.04%">Ed</textPath>
</text>
</g>
<g transform="translate(300.0,300.0) rotate(103.75,0,0)">
<path style="stroke:grey; fill:lightblue;"
d="M65.95,-95.43
A116.0,116.0 0 0 1 65.95,95.43
L98.93,143.14
A174.0,174.0 0 0 0 98.93,-143.14
z" />
<defs>
  <path id="texti19" d="M93.98,135.98 A165.3,165.3 0 0 0 93.98,-135.98" />
</defs>
<text font-size="16" font-family="Times New Roman,serif">
  <textPath href="#texti19" startOffset="45.65%">Elias</textPath>
</text>
</g>
<g transform="translate(300.0,300.0) rotate(62.2,0,0)">
<path style="stroke:grey; fill:lightblue;"
d="M168.98,-41.5
A174.0,174.0 0 0 1 168.98,41.5
L225.3,55.34
A232.0,232.0 0 0 0 225.3,-55.34
z" />
<defs>
  <path id="texti22" d="M216.85,53.26 A223.3,223.3 0 0 0 216.85,-53.26" />
</defs>
<text font-size="16" font-family="Times New Roman,serif">
  <textPath href="#texti22" startOffset="39.49%">Ezra</textPath>
</text>
</g>
<g transform="translate(300.0,300.0) rotate(173.05,0,0)">
<path style="stroke:grey; fill:coral;"
d="M56.31,-13.88
A58.0,58.0 0 0 1 56.31,13.88
L112.63,27.77
A116.0,116.0 0 0 0 112.63,-27.77
z" />
<defs>
  <path id="texti23" d="M104.18,25.69 A107.3,107.3 0 0 0 104.18,-25.69" />
</defs>
<text font-size="16" font-family="Times New Roman,serif">
  <textPath href="#texti23" startOffset="23.23%">Faith</textPath>
</text>
</g>
<g transform="translate(300.0,300.0) rotate(173.0,0,0)">
<path style="stroke:grey; fill:coral;"
d="M112.65,-27.67
A116.0,116.0 0 0 1 112.65,27.67
L168.98,41.5
A174.0,174.0 0 0 0 168.98,-41.5
z" />
<defs>
  <path id="texti25" d="M160.53,39.43 A165.3,165.3 0 0 0 160.53,-39.43" />
</defs>
<text font-size="16" font-family="Times New Roman,serif">
  <textPath href="#texti25" startOffset="35.81%">Fred</textPath>
</text>
</g>
<g transform="translate(300.0,300.0) rotate(173.0,0,0)">
<path style="stroke:grey; fill:coral;"
d="M168.98,-41.5
A174.0,174.0 0 0 1 168.98,41.5
L225.3,55.34
A232.0,232.0 0 0 0 225.3,-55.34
z" />
<defs>
  <path id="texti27" d="M216.85,53.26 A223.3,223.3 0 0 0 216.85,-53.26" />
</defs>
<text font-size="16" font-family="Times New Roman,serif">
  <textPath href="#texti27" startOffset="32.29%">Forrest</textPath>
</text>
</g>
<g transform="translate(300.0,300.0) rotate(228.45,0,0)">
<path style="stroke:grey; fill:khaki;"
d="M43.41,-38.47
A58.0,58.0 0 0 1 43.41,38.47
L86.81,76.94
A116.0,116.0 0 0 0 86.81,-76.94
z" />
<defs>
  <path id="texti28" d="M80.3,71.17 A107.3,107.3 0 0 0 80.3,-71.17" />
</defs>
<text font-size="16" font-family="Times New Roman,serif">
  <textPath href="#texti28" startOffset="41.08%">Henry</textPath>
</text>
</g>
<g transform="translate(300.0,300.0) rotate(228.4,0,0)">
<path style="stroke:grey; fill:khaki;"
d="M86.88,-76.86
A116.0,116.0 0 0 1 86.88,76.86
L130.32,115.3
A174.0,174.0 0 0 0 130.32,-115.3
z" />
<defs>
  <path id="texti30" d="M123.8,109.53 A165.3,165.3 0 0 0 123.8,-109.53" />
</defs>
<text font-size="16" font-family="Times New Roman,serif">
  <textPath href="#texti30" startOffset="45.28%">Hope</textPath>
</text>
</g>
<g transform="translate(300.0,300.0) rotate(200.7,0,0)">
<path style="stroke:grey; fill:khaki;"
d="M168.98,-41.5
A174.0,174.0 0 0 1 168.98,41.5
L225.3,55.34
A232.0,232.0 0 0 0 225.3,-55.34
z" />
<defs>
  <path id="texti32" d="M216.85,53.26 A223.3,223.3 0 0 0 216.85,-53.26" />
</defs>
<text font-size="16" font-family="Times New Roman,serif">
  <textPath href="#texti32" startOffset="34.69%">Hannah</textPath>
</text>
</g>
<g transform="translate(300.0,300.0) rotate(228.35,0,0)">
<path style="stroke:grey; fill:lightsteelblue;"
d="M168.94,-41.65
A174.0,174.0 0 0 1 168.94,41.65
L225.25,55.54
A232.0,232.0 0 0 0 225.25,-55.54
z" />
<defs>
  <path id="texti34" d="M216.81,53.45 A223.3,223.3 0 0 0 216.81,-53.45" />
</defs>
<text font-size="16" font-family="Times New Roman,serif">
  <textPath href="#texti34" startOffset="37.14%">Hazel</textPath>
</text>
</g>
<g transform="translate(300.0,300.0) rotate(256.05,0,0)">
<path style="stroke:grey; fill:thistle;"
d="M168.94,-41.65
A174.0,174.0 0 0 1 168.94,41.65
L225.25,55.54
A232.0,232.0 0 0 0 225.25,-55.54
z" />
<defs>
  <path id="texti36" d="M216.81,53.45 A223.3,223.3 0 0 0 216.81,-53.45" />
</defs>
<text font-size="16" font-family="Times New Roman,serif">
  <textPath href="#texti36" startOffset="37.14%">Helen</textPath>
</text>
</g>
<circle cx="300.0" cy="300.0" fill="none" stroke-width="2" stroke="grey" r="58.0"/>
<circle cx="300.0" cy="300.0" fill="none" stroke-width="2" stroke="grey" r="116.0"/>
<circle cx="300.0" cy="300.0" fill="none" stroke-width="2" stroke="grey" r="174.0"/>
<circle cx="300.0" cy="300.0" fill="none" stroke-width="2" stroke="grey" r="232.0"/>
<circle cx="300.0" cy="300.0" fill="none" stroke-width="2" stroke="grey" r="290.0"/>
</svg>
