<?xml version="1.0" standalone="no"?>
<!-- generated by fan-chart.py 0.2.6 -->
<svg width="600pt" height="600pt"
 viewBox="0.00 0.00 600.00 600.00"
 version="1.1"
 xmlns="http://www.w3.org/2000/svg"
 xmlns:xlink="http://www.w3.org/1999/xlink">
<g transform="translate(300.0,300.0) rotate(-77.05,0,0)">
<path style="stroke:grey; stroke-width:2; fill:mediumturquoise;"
d="M56.52,-13.0
A58.0,58.0 0 0 1 56.52,13.0
L113.05,26.0
A116.0,116.0 0 0 0 113.05,-26.0
z" />
<defs>
  <path id="texti3" d="M104.57,24.05 A107.3,107.3 0 0 0 104.57,-24.05" />
</defs>
<text font-size="13" font-family="Times New Roman,serif">
  <textPath href="#texti3" startOffset="26.79%">Alice</textPath>
</text>
</g>
<g transform="translate(300.0,300.0) rotate(-51.25,0,0)">
<path style="stroke:grey; stroke-width:2; fill:thistle;"
d="M56.55,-12.9
A58.0,58.0 0 0 1 56.55,12.9
L113.09,25.8
A116.0,116.0 0 0 0 113.09,-25.8
z" />
<defs>
  <path id="texti4" d="M80.58,18.38 A82.65,82.65 0 0 0 80.58,-18.38" />
</defs>
<text font-size="13" font-family="Times New Roman,serif">
  <textPath href="#texti4" startOffset="30.96%">Bob</textPath>
</text>
</g>
<g transform="translate(300.0,300.0) rotate(-51.25,0,0)">
<defs>
  <path id="texti6" d="M109.15,24.9 A111.95,111.95 0 0 0 109.15,-24.9" />
</defs>
<text font-size="13" font-family="Times New Roman,serif">
  <textPath href="#texti6" startOffset="16.2%">+ Betty</textPath>
</text>
<path d="M113.09,25.8 L86.77,19.79" style="stroke:grey; stroke-width:2;" />
</g>
<g transform="translate(300.0,300.0) rotate(-12.7,0,0)">
<path style="stroke:grey; stroke-width:2; fill:mistyrose;"
d="M52.26,-25.15
A58.0,58.0 0 0 1 52.26,25.15
L104.52,50.3
A116.0,116.0 0 0 0 104.52,-50.3
z" />
<defs>
  <path id="texti5" d="M74.47,35.84 A82.65,82.65 0 0 0 74.47,-35.84" />
</defs>
<text font-size="13" font-family="Times New Roman,serif">
  <textPath href="#texti5" startOffset="34.82%">Carol</textPath>
</text>
</g>
<g transform="translate(300.0,300.0) rotate(-25.55,0,0)">
<defs>
  <path id="texti7" d="M109.15,24.9 A111.95,111.95 0 0 0 109.15,-24.9" />
</defs>
<text font-size="13" font-family="Times New Roman,serif">
  <textPath href="#texti7" startOffset="20.38%">+ Carl</textPath>
</text>
<path d="M113.09,25.8 L86.77,19.79" style="stroke:grey; stroke-width:2;" />
</g>
<g transform="translate(300.0,300.0) rotate(0.15,0,0)">
<defs>
  <path id="texti40" d="M109.15,24.9 A111.95,111.95 0 0 0 109.15,-24.9" />
</defs>
<text font-size="13" font-family="Times New Roman,serif">
  <textPath href="#texti40" startOffset="20.38%">+ Chas</textPath>
</text>
<path d="M113.09,25.8 L86.77,19.79" style="stroke:grey; stroke-width:2;" />
</g>
<g transform="translate(300.0,300.0) rotate(-25.55,0,0)">
<path style="stroke:grey; stroke-width:2; fill:mistyrose;"
d="M113.09,-25.8
A116.0,116.0 0 0 1 113.09,25.8
L169.64,38.7
A174.0,174.0 0 0 0 169.64,-38.7
z" />
<defs>
  <path id="texti8" d="M161.16,36.76 A165.3,165.3 0 0 0 161.16,-36.76" />
</defs>
<text font-size="13" font-family="Times New Roman,serif">
  <textPath href="#texti8" startOffset="34.82%">Chris</textPath>
</text>
</g>
<g transform="translate(300.0,300.0) rotate(0.15,0,0)">
<path style="stroke:grey; stroke-width:2; fill:mistyrose;"
d="M113.09,-25.8
A116.0,116.0 0 0 1 113.09,25.8
L169.64,38.7
A174.0,174.0 0 0 0 169.64,-38.7
z" />
<defs>
  <path id="texti41" d="M161.16,36.76 A165.3,165.3 0 0 0 161.16,-36.76" />
</defs>
<text font-size="13" font-family="Times New Roman,serif">
  <textPath href="#texti41" startOffset="31.99%">Connor</textPath>
</text>
</g>
<g transform="translate(300.0,300.0) rotate(38.7,0,0)">
<path style="stroke:grey; stroke-width:2; fill:lightseagreen;"
d="M52.26,-25.15
A58.0,58.0 0 0 1 52.26,25.15
L104.52,50.3
A116.0,116.0 0 0 0 104.52,-50.3
z" />
<defs>
  <path id="texti9" d="M74.47,35.84 A82.65,82.65 0 0 0 74.47,-35.84" />
</defs>
<text font-size="13" font-family="Times New Roman,serif">
  <textPath href="#texti9" startOffset="34.82%">David</textPath>
</text>
</g>
<g transform="translate(300.0,300.0) rotate(38.7,0,0)">
<defs>
  <path id="texti10" d="M100.88,48.55 A111.95,111.95 0 0 0 100.88,-48.55" />
</defs>
<text font-size="13" font-family="Times New Roman,serif">
  <textPath href="#texti10" startOffset="31.01%">+ Denise</textPath>
</text>
<path d="M104.52,50.3 L80.2,38.6" style="stroke:grey; stroke-width:2;" />
</g>
<g transform="translate(300.0,300.0) rotate(25.85,0,0)">
<path style="stroke:grey; stroke-width:2; fill:lightseagreen;"
d="M113.09,-25.8
A116.0,116.0 0 0 1 113.09,25.8
L169.64,38.7
A174.0,174.0 0 0 0 169.64,-38.7
z" />
<defs>
  <path id="texti11" d="M137.13,31.28 A140.65,140.65 0 0 0 137.13,-31.28" />
</defs>
<text font-size="13" font-family="Times New Roman,serif">
  <textPath href="#texti11" startOffset="25.5%">Daphnie</textPath>
</text>
</g>
<g transform="translate(300.0,300.0) rotate(25.85,0,0)">
<defs>
  <path id="texti13" d="M165.69,37.8 A169.95,169.95 0 0 0 165.69,-37.8" />
</defs>
<text font-size="13" font-family="Times New Roman,serif">
  <textPath href="#texti13" startOffset="24.98%">+ Dexter</textPath>
</text>
<path d="M169.64,38.7 L143.32,32.69" style="stroke:grey; stroke-width:2;" />
</g>
<g transform="translate(300.0,300.0) rotate(25.85,0,0)">
<path style="stroke:grey; stroke-width:2; fill:lightseagreen;"
d="M169.64,-38.7
A174.0,174.0 0 0 1 169.64,38.7
L226.19,51.6
A232.0,232.0 0 0 0 226.19,-51.6
z" />
<defs>
  <path id="texti14" d="M193.67,44.18 A198.65,198.65 0 0 0 193.67,-44.18" />
</defs>
<text font-size="13" font-family="Times New Roman,serif">
  <textPath href="#texti14" startOffset="35.01%">Dennis</textPath>
</text>
</g>
<g transform="translate(300.0,300.0) rotate(25.85,0,0)">
<defs>
  <path id="texti15" d="M222.24,50.7 A227.95,227.95 0 0 0 222.24,-50.7" />
</defs>
<text font-size="13" font-family="Times New Roman,serif">
  <textPath href="#texti15" startOffset="33.4%">+ Daisy</textPath>
</text>
<path d="M226.19,51.6 L199.87,45.59" style="stroke:grey; stroke-width:2;" />
</g>
<g transform="translate(300.0,300.0) rotate(25.85,0,0)">
<path style="stroke:grey; stroke-width:2; fill:lightseagreen;"
d="M226.19,-51.6
A232.0,232.0 0 0 1 226.19,51.6
L282.74,64.5
A290.0,290.0 0 0 0 282.74,-64.5
z" />
<defs>
  <path id="texti16" d="M274.26,62.56 A281.3,281.3 0 0 0 274.26,-62.56" />
</defs>
<text font-size="13" font-family="Times New Roman,serif">
  <textPath href="#texti16" startOffset="42.74%">Demi</textPath>
</text>
</g>
<g transform="translate(300.0,300.0) rotate(51.55,0,0)">
<path style="stroke:grey; stroke-width:2; fill:khaki;"
d="M113.09,-25.8
A116.0,116.0 0 0 1 113.09,25.8
L169.64,38.7
A174.0,174.0 0 0 0 169.64,-38.7
z" />
<defs>
  <path id="texti12" d="M161.16,36.76 A165.3,165.3 0 0 0 161.16,-36.76" />
</defs>
<text font-size="13" font-family="Times New Roman,serif">
  <textPath href="#texti12" startOffset="37.65%">Drew</textPath>
</text>
</g>
<g transform="translate(300.0,300.0) rotate(115.8,0,0)">
<path style="stroke:grey; stroke-width:2; fill:lightblue;"
d="M36.19,-45.33
A58.0,58.0 0 0 1 36.19,45.33
L72.37,90.66
A116.0,116.0 0 0 0 72.37,-90.66
z" />
<defs>
  <path id="texti17" d="M51.56,64.59 A82.65,82.65 0 0 0 51.56,-64.59" />
</defs>
<text font-size="13" font-family="Times New Roman,serif">
  <textPath href="#texti17" startOffset="46.66%">Ed</textPath>
</text>
</g>
<g transform="translate(300.0,300.0) rotate(115.8,0,0)">
<defs>
  <path id="texti18" d="M69.84,87.49 A111.95,111.95 0 0 0 69.84,-87.49" />
</defs>
<text font-size="13" font-family="Times New Roman,serif">
  <textPath href="#texti18" startOffset="42.59%">+ Edna</textPath>
</text>
<path d="M72.37,90.66 L55.53,69.56" style="stroke:grey; stroke-width:2;" />
</g>
<g transform="translate(300.0,300.0) rotate(115.8,0,0)">
<path style="stroke:grey; stroke-width:2; fill:lightblue;"
d="M72.37,-90.66
A116.0,116.0 0 0 1 72.37,90.66
L108.56,135.98
A174.0,174.0 0 0 0 108.56,-135.98
z" />
<defs>
  <path id="texti19" d="M87.75,109.92 A140.65,140.65 0 0 0 87.75,-109.92" />
</defs>
<text font-size="13" font-family="Times New Roman,serif">
  <textPath href="#texti19" startOffset="45.54%">Elias</textPath>
</text>
</g>
<g transform="translate(300.0,300.0) rotate(77.25,0,0)">
<defs>
  <path id="texti38" d="M165.69,37.8 A169.95,169.95 0 0 0 165.69,-37.8" />
</defs>
<text font-size="13" font-family="Times New Roman,serif">
  <textPath href="#texti38" startOffset="24.98%">+ Elanor</textPath>
</text>
<path d="M169.64,38.7 L143.32,32.69" style="stroke:grey; stroke-width:2;" />
</g>
<g transform="translate(300.0,300.0) rotate(102.95,0,0)">
<defs>
  <path id="texti21" d="M165.69,37.8 A169.95,169.95 0 0 0 165.69,-37.8" />
</defs>
<text font-size="13" font-family="Times New Roman,serif">
  <textPath href="#texti21" startOffset="27.73%">+ Eliza</textPath>
</text>
<path d="M169.64,38.7 L143.32,32.69" style="stroke:grey; stroke-width:2;" />
</g>
<g transform="translate(300.0,300.0) rotate(128.65,0,0)">
<defs>
  <path id="texti20" d="M165.69,37.8 A169.95,169.95 0 0 0 165.69,-37.8" />
</defs>
<text font-size="13" font-family="Times New Roman,serif">
  <textPath href="#texti20" startOffset="33.24%">+ Eva</textPath>
</text>
<path d="M169.64,38.7 L143.32,32.69" style="stroke:grey; stroke-width:2;" />
</g>
<g transform="translate(300.0,300.0) rotate(154.35,0,0)">
<defs>
  <path id="texti39" d="M165.69,37.8 A169.95,169.95 0 0 0 165.69,-37.8" />
</defs>
<text font-size="13" font-family="Times New Roman,serif">
  <textPath href="#texti39" startOffset="30.49%">+ Eden</textPath>
</text>
<path d="M169.64,38.7 L143.32,32.69" style="stroke:grey; stroke-width:2;" />
</g>
<g transform="translate(300.0,300.0) rotate(102.95,0,0)">
<path style="stroke:grey; stroke-width:2; fill:lightblue;"
d="M169.64,-38.7
A174.0,174.0 0 0 1 169.64,38.7
L226.19,51.6
A232.0,232.0 0 0 0 226.19,-51.6
z" />
<defs>
  <path id="texti22" d="M217.71,49.66 A223.3,223.3 0 0 0 217.71,-49.66" />
</defs>
<text font-size="13" font-family="Times New Roman,serif">
  <textPath href="#texti22" startOffset="40.86%">Ezra</textPath>
</text>
</g>
<g transform="translate(300.0,300.0) rotate(180.05,0,0)">
<path style="stroke:grey; stroke-width:2; fill:coral;"
d="M56.55,-12.9
A58.0,58.0 0 0 1 56.55,12.9
L113.09,25.8
A116.0,116.0 0 0 0 113.09,-25.8
z" />
<defs>
  <path id="texti23" d="M80.58,18.38 A82.65,82.65 0 0 0 80.58,-18.38" />
</defs>
<text font-size="13" font-family="Times New Roman,serif">
  <textPath href="#texti23" startOffset="19.63%">Faith</textPath>
</text>
</g>
<g transform="translate(300.0,300.0) rotate(180.05,0,0)">
<defs>
  <path id="texti24" d="M109.15,24.9 A111.95,111.95 0 0 0 109.15,-24.9" />
</defs>
<text font-size="13" font-family="Times New Roman,serif">
  <textPath href="#texti24" startOffset="16.2%">+ Felix</textPath>
</text>
<path d="M113.09,25.8 L86.77,19.79" style="stroke:grey; stroke-width:2;" />
</g>
<g transform="translate(300.0,300.0) rotate(180.05,0,0)">
<path style="stroke:grey; stroke-width:2; fill:coral;"
d="M113.09,-25.8
A116.0,116.0 0 0 1 113.09,25.8
L169.64,38.7
A174.0,174.0 0 0 0 169.64,-38.7
z" />
<defs>
  <path id="texti25" d="M137.13,31.28 A140.65,140.65 0 0 0 137.13,-31.28" />
</defs>
<text font-size="13" font-family="Times New Roman,serif">
  <textPath href="#texti25" startOffset="35.48%">Fred</textPath>
</text>
</g>
<g transform="translate(300.0,300.0) rotate(180.05,0,0)">
<defs>
  <path id="texti26" d="M165.69,37.8 A169.95,169.95 0 0 0 165.69,-37.8" />
</defs>
<text font-size="13" font-family="Times New Roman,serif">
  <textPath href="#texti26" startOffset="27.73%">+ Flora</textPath>
</text>
<path d="M169.64,38.7 L143.32,32.69" style="stroke:grey; stroke-width:2;" />
</g>
<g transform="translate(300.0,300.0) rotate(180.05,0,0)">
<path style="stroke:grey; stroke-width:2; fill:coral;"
d="M169.64,-38.7
A174.0,174.0 0 0 1 169.64,38.7
L226.19,51.6
A232.0,232.0 0 0 0 226.19,-51.6
z" />
<defs>
  <path id="texti27" d="M217.71,49.66 A223.3,223.3 0 0 0 217.71,-49.66" />
</defs>
<text font-size="13" font-family="Times New Roman,serif">
  <textPath href="#texti27" startOffset="34.57%">Forrest</textPath>
</text>
</g>
<g transform="translate(300.0,300.0) rotate(231.45,0,0)">
<path style="stroke:grey; stroke-width:2; fill:khaki;"
d="M45.36,-36.15
A58.0,58.0 0 0 1 45.36,36.15
L90.72,72.29
A116.0,116.0 0 0 0 90.72,-72.29
z" />
<defs>
  <path id="texti28" d="M64.64,51.51 A82.65,82.65 0 0 0 64.64,-51.51" />
</defs>
<text font-size="13" font-family="Times New Roman,serif">
  <textPath href="#texti28" startOffset="39.88%">Henry</textPath>
</text>
</g>
<g transform="translate(300.0,300.0) rotate(231.45,0,0)">
<defs>
  <path id="texti29" d="M87.55,69.77 A111.95,111.95 0 0 0 87.55,-69.77" />
</defs>
<text font-size="13" font-family="Times New Roman,serif">
  <textPath href="#texti29" startOffset="38.73%">+ Holly</textPath>
</text>
<path d="M90.72,72.29 L69.6,55.46" style="stroke:grey; stroke-width:2;" />
</g>
<g transform="translate(300.0,300.0) rotate(231.45,0,0)">
<path style="stroke:grey; stroke-width:2; fill:khaki;"
d="M90.72,-72.29
A116.0,116.0 0 0 1 90.72,72.29
L136.08,108.44
A174.0,174.0 0 0 0 136.08,-108.44
z" />
<defs>
  <path id="texti30" d="M110.0,87.65 A140.65,140.65 0 0 0 110.0,-87.65" />
</defs>
<text font-size="13" font-family="Times New Roman,serif">
  <textPath href="#texti30" startOffset="45.16%">Hope</textPath>
</text>
</g>
<g transform="translate(300.0,300.0) rotate(231.45,0,0)">
<defs>
  <path id="texti31" d="M132.91,105.91 A169.95,169.95 0 0 0 132.91,-105.91" />
</defs>
<text font-size="13" font-family="Times New Roman,serif">
  <textPath href="#texti31" startOffset="41.66%">+ Hunter</textPath>
</text>
<path d="M136.08,108.44 L114.96,91.61" style="stroke:grey; stroke-width:2;" />
</g>
<g transform="translate(300.0,300.0) rotate(205.75,0,0)">
<path style="stroke:grey; stroke-width:2; fill:khaki;"
d="M169.64,-38.7
A174.0,174.0 0 0 1 169.64,38.7
L226.19,51.6
A232.0,232.0 0 0 0 226.19,-51.6
z" />
<defs>
  <path id="texti32" d="M193.67,44.18 A198.65,198.65 0 0 0 193.67,-44.18" />
</defs>
<text font-size="13" font-family="Times New Roman,serif">
  <textPath href="#texti32" startOffset="35.01%">Hannah</textPath>
</text>
</g>
<g transform="translate(300.0,300.0) rotate(205.75,0,0)">
<defs>
  <path id="texti33" d="M222.24,50.7 A227.95,227.95 0 0 0 222.24,-50.7" />
</defs>
<text font-size="13" font-family="Times New Roman,serif">
  <textPath href="#texti33" startOffset="31.35%">+ Harvey</textPath>
</text>
<path d="M226.19,51.6 L199.87,45.59" style="stroke:grey; stroke-width:2;" />
</g>
<g transform="translate(300.0,300.0) rotate(231.45,0,0)">
<path style="stroke:grey; stroke-width:2; fill:lightsteelblue;"
d="M169.64,-38.7
A174.0,174.0 0 0 1 169.64,38.7
L226.19,51.6
A232.0,232.0 0 0 0 226.19,-51.6
z" />
<defs>
  <path id="texti34" d="M193.67,44.18 A198.65,198.65 0 0 0 193.67,-44.18" />
</defs>
<text font-size="13" font-family="Times New Roman,serif">
  <textPath href="#texti34" startOffset="37.37%">Hazel</textPath>
</text>
</g>
<g transform="translate(300.0,300.0) rotate(231.45,0,0)">
<defs>
  <path id="texti35" d="M222.24,50.7 A227.95,227.95 0 0 0 222.24,-50.7" />
</defs>
<text font-size="13" font-family="Times New Roman,serif">
  <textPath href="#texti35" startOffset="35.45%">+ Hank</textPath>
</text>
<path d="M226.19,51.6 L199.87,45.59" style="stroke:grey; stroke-width:2;" />
</g>
<g transform="translate(300.0,300.0) rotate(257.15,0,0)">
<path style="stroke:grey; stroke-width:2; fill:thistle;"
d="M169.64,-38.7
A174.0,174.0 0 0 1 169.64,38.7
L226.19,51.6
A232.0,232.0 0 0 0 226.19,-51.6
z" />
<defs>
  <path id="texti36" d="M193.67,44.18 A198.65,198.65 0 0 0 193.67,-44.18" />
</defs>
<text font-size="13" font-family="Times New Roman,serif">
  <textPath href="#texti36" startOffset="37.37%">Helen</textPath>
</text>
</g>
<g transform="translate(300.0,300.0) rotate(257.15,0,0)">
<defs>
  <path id="texti37" d="M222.24,50.7 A227.95,227.95 0 0 0 222.24,-50.7" />
</defs>
<text font-size="13" font-family="Times New Roman,serif">
  <textPath href="#texti37" startOffset="31.35%">+ Hudson</textPath>
</text>
<path d="M226.19,51.6 L199.87,45.59" style="stroke:grey; stroke-width:2;" />
</g>
<circle cx="300.0" cy="300.0" fill="none" stroke-width="2" stroke="grey" r="58.0"/>
<circle cx="300.0" cy="300.0" fill="none" stroke-width="2" stroke="grey" r="116.0"/>
<circle cx="300.0" cy="300.0" fill="none" stroke-width="2" stroke="grey" r="174.0"/>
<circle cx="300.0" cy="300.0" fill="none" stroke-width="2" stroke="grey" r="232.0"/>
<circle cx="300.0" cy="300.0" fill="none" stroke-width="2" stroke="grey" r="290.0"/>
</svg>
