<?xml version="1.0" standalone="no"?>
<!-- generated by fan-chart.py 0.3.3 -->
<svg width="600pt" height="600pt"
 viewBox="0.00 0.00 600.00 600.00"
 version="1.1"
 xmlns="http://www.w3.org/2000/svg"
 xmlns:xlink="http://www.w3.org/1999/xlink">
<g transform="translate(300.0,300.0)">
<g transform="rotate(-78.75,0,0)">
<path style="stroke:grey; stroke-width:2; fill:mediumturquoise;"
d="M56.89,-11.32
A58.0,58.0 0 0 1 56.89,11.32
L113.77,22.63
A116.0,116.0 0 0 0 113.77,-22.63
z" />
<defs>
  <path id="texti3" d="M105.24,20.93 A107.3,107.3 0 0 0 105.24,-20.93" />
</defs>
<text font-size="13" font-family="Times New Roman,serif">
  <textPath href="#texti3" startOffset="21.19%">Alice</textPath>
</text>
</g>
<g transform="rotate(-56.25,0,0)">
<path style="stroke:grey; stroke-width:2; fill:thistle;"
d="M56.89,-11.32
A58.0,58.0 0 0 1 56.89,11.32
L113.77,22.63
A116.0,116.0 0 0 0 113.77,-22.63
z" />
<defs>
  <path id="texti4" d="M81.06,16.12 A82.65,82.65 0 0 0 81.06,-16.12" />
</defs>
<text font-size="13" font-family="Times New Roman,serif">
  <textPath href="#texti4" startOffset="25.71%">Bob</textPath>
</text>
<g transform="rotate(0.0,0,0)">
<defs>
  <path id="texti6" d="M109.8,21.84 A111.95,111.95 0 0 0 109.8,-21.84" />
</defs>
<text font-size="13" font-family="Times New Roman,serif">
  <textPath href="#texti6" startOffset="10.37%">+ Betty</textPath>
</text>
<path d="M113.77,22.63 L87.29,17.36" style="stroke:grey; stroke-width:2;" />
</g>
</g>
<g transform="rotate(-22.5,0,0)">
<path style="stroke:grey; stroke-width:2; fill:mistyrose;"
d="M53.59,-22.2
A58.0,58.0 0 0 1 53.59,22.2
L107.17,44.39
A116.0,116.0 0 0 0 107.17,-44.39
z" />
<defs>
  <path id="texti5" d="M76.36,31.63 A82.65,82.65 0 0 0 76.36,-31.63" />
</defs>
<text font-size="13" font-family="Times New Roman,serif">
  <textPath href="#texti5" startOffset="29.72%">Carol</textPath>
</text>
<g transform="rotate(-11.25,0,0)">
<defs>
  <path id="texti40" d="M109.8,21.84 A111.95,111.95 0 0 0 109.8,-21.84" />
</defs>
<text font-size="13" font-family="Times New Roman,serif">
  <textPath href="#texti40" startOffset="14.71%">+ Chas</textPath>
</text>
<path d="M113.77,22.63 L87.29,17.36" style="stroke:grey; stroke-width:2;" />
</g>
<g transform="rotate(11.25,0,0)">
<defs>
  <path id="texti7" d="M109.8,21.84 A111.95,111.95 0 0 0 109.8,-21.84" />
</defs>
<text font-size="13" font-family="Times New Roman,serif">
  <textPath href="#texti7" startOffset="14.71%">+ Carl</textPath>
</text>
<path d="M113.77,22.63 L87.29,17.36" style="stroke:grey; stroke-width:2;" />
</g>
</g>
<g transform="rotate(-33.75,0,0)">
<path style="stroke:grey; stroke-width:2; fill:mistyrose;"
d="M113.77,-22.63
A116.0,116.0 0 0 1 113.77,22.63
L170.66,33.95
A174.0,174.0 0 0 0 170.66,-33.95
z" />
<defs>
  <path id="texti41" d="M162.12,32.25 A165.3,165.3 0 0 0 162.12,-32.25" />
</defs>
<text font-size="13" font-family="Times New Roman,serif">
  <textPath href="#texti41" startOffset="26.77%">Connor</textPath>
</text>
</g>
<g transform="rotate(-11.25,0,0)">
<path style="stroke:grey; stroke-width:2; fill:mistyrose;"
d="M113.77,-22.63
A116.0,116.0 0 0 1 113.77,22.63
L170.66,33.95
A174.0,174.0 0 0 0 170.66,-33.95
z" />
<defs>
  <path id="texti8" d="M162.12,32.25 A165.3,165.3 0 0 0 162.12,-32.25" />
</defs>
<text font-size="13" font-family="Times New Roman,serif">
  <textPath href="#texti8" startOffset="29.72%">Chris</textPath>
</text>
</g>
<g transform="rotate(22.5,0,0)">
<path style="stroke:grey; stroke-width:2; fill:lightseagreen;"
d="M53.59,-22.2
A58.0,58.0 0 0 1 53.59,22.2
L107.17,44.39
A116.0,116.0 0 0 0 107.17,-44.39
z" />
<defs>
  <path id="texti9" d="M76.36,31.63 A82.65,82.65 0 0 0 76.36,-31.63" />
</defs>
<text font-size="13" font-family="Times New Roman,serif">
  <textPath href="#texti9" startOffset="29.72%">David</textPath>
</text>
<g transform="rotate(0.0,0,0)">
<defs>
  <path id="texti10" d="M103.43,42.84 A111.95,111.95 0 0 0 103.43,-42.84" />
</defs>
<text font-size="13" font-family="Times New Roman,serif">
  <textPath href="#texti10" startOffset="25.76%">+ Denise</textPath>
</text>
<path d="M107.17,44.39 L82.23,34.06" style="stroke:grey; stroke-width:2;" />
</g>
</g>
<g transform="rotate(11.25,0,0)">
<path style="stroke:grey; stroke-width:2; fill:lightseagreen;"
d="M113.77,-22.63
A116.0,116.0 0 0 1 113.77,22.63
L170.66,33.95
A174.0,174.0 0 0 0 170.66,-33.95
z" />
<defs>
  <path id="texti11" d="M137.95,27.44 A140.65,140.65 0 0 0 137.95,-27.44" />
</defs>
<text font-size="13" font-family="Times New Roman,serif">
  <textPath href="#texti11" startOffset="20.03%">Daphnie</textPath>
</text>
<g transform="rotate(0.0,0,0)">
<defs>
  <path id="texti13" d="M166.68,33.16 A169.95,169.95 0 0 0 166.68,-33.16" />
</defs>
<text font-size="13" font-family="Times New Roman,serif">
  <textPath href="#texti13" startOffset="19.49%">+ Dexter</textPath>
</text>
<path d="M170.66,33.95 L144.18,28.68" style="stroke:grey; stroke-width:2;" />
</g>
</g>
<g transform="rotate(11.25,0,0)">
<path style="stroke:grey; stroke-width:2; fill:lightseagreen;"
d="M170.66,-33.95
A174.0,174.0 0 0 1 170.66,33.95
L227.54,45.26
A232.0,232.0 0 0 0 227.54,-45.26
z" />
<defs>
  <path id="texti14" d="M194.83,38.75 A198.65,198.65 0 0 0 194.83,-38.75" />
</defs>
<text font-size="13" font-family="Times New Roman,serif">
  <textPath href="#texti14" startOffset="29.92%">Dennis</textPath>
</text>
<g transform="rotate(0.0,0,0)">
<defs>
  <path id="texti15" d="M223.57,44.47 A227.95,227.95 0 0 0 223.57,-44.47" />
</defs>
<text font-size="13" font-family="Times New Roman,serif">
  <textPath href="#texti15" startOffset="28.24%">+ Daisy</textPath>
</text>
<path d="M227.54,45.26 L201.06,39.99" style="stroke:grey; stroke-width:2;" />
</g>
</g>
<g transform="rotate(11.25,0,0)">
<path style="stroke:grey; stroke-width:2; fill:lightseagreen;"
d="M227.54,-45.26
A232.0,232.0 0 0 1 227.54,45.26
L284.43,56.58
A290.0,290.0 0 0 0 284.43,-56.58
z" />
<defs>
  <path id="texti16" d="M275.89,54.88 A281.3,281.3 0 0 0 275.89,-54.88" />
</defs>
<text font-size="13" font-family="Times New Roman,serif">
  <textPath href="#texti16" startOffset="37.96%">Demi</textPath>
</text>
</g>
<g transform="rotate(33.75,0,0)">
<path style="stroke:grey; stroke-width:2; fill:khaki;"
d="M113.77,-22.63
A116.0,116.0 0 0 1 113.77,22.63
L170.66,33.95
A174.0,174.0 0 0 0 170.66,-33.95
z" />
<defs>
  <path id="texti12" d="M162.12,32.25 A165.3,165.3 0 0 0 162.12,-32.25" />
</defs>
<text font-size="13" font-family="Times New Roman,serif">
  <textPath href="#texti12" startOffset="32.66%">Drew</textPath>
</text>
</g>
<g transform="rotate(112.5,0,0)">
<path style="stroke:grey; stroke-width:2; fill:lightblue;"
d="M22.2,-53.59
A58.0,58.0 0 0 1 22.2,53.59
L44.39,107.17
A116.0,116.0 0 0 0 44.39,-107.17
z" />
<defs>
  <path id="texti17" d="M31.63,76.36 A82.65,82.65 0 0 0 31.63,-76.36" />
</defs>
<text font-size="13" font-family="Times New Roman,serif">
  <textPath href="#texti17" startOffset="43.18%">Ed</textPath>
</text>
<g transform="rotate(0.0,0,0)">
<defs>
  <path id="texti18" d="M42.84,103.43 A111.95,111.95 0 0 0 42.84,-103.43" />
</defs>
<text font-size="13" font-family="Times New Roman,serif">
  <textPath href="#texti18" startOffset="40.37%">+ Edna</textPath>
</text>
<path d="M44.39,107.17 L34.06,82.23" style="stroke:grey; stroke-width:2;" />
</g>
</g>
<g transform="rotate(112.5,0,0)">
<path style="stroke:grey; stroke-width:2; fill:lightblue;"
d="M44.39,-107.17
A116.0,116.0 0 0 1 44.39,107.17
L66.59,160.76
A174.0,174.0 0 0 0 66.59,-160.76
z" />
<defs>
  <path id="texti19" d="M53.82,129.94 A140.65,140.65 0 0 0 53.82,-129.94" />
</defs>
<text font-size="13" font-family="Times New Roman,serif">
  <textPath href="#texti19" startOffset="42.41%">Elias</textPath>
</text>
<g transform="rotate(-56.25,0,0)">
<defs>
  <path id="texti21" d="M166.68,33.16 A169.95,169.95 0 0 0 166.68,-33.16" />
</defs>
<text font-size="13" font-family="Times New Roman,serif">
  <textPath href="#texti21" startOffset="22.36%">+ Eliza</textPath>
</text>
<path d="M170.66,33.95 L144.18,28.68" style="stroke:grey; stroke-width:2;" />
</g>
<g transform="rotate(-33.75,0,0)">
<defs>
  <path id="texti20" d="M166.68,33.16 A169.95,169.95 0 0 0 166.68,-33.16" />
</defs>
<text font-size="13" font-family="Times New Roman,serif">
  <textPath href="#texti20" startOffset="28.08%">+ Eva</textPath>
</text>
<path d="M170.66,33.95 L144.18,28.68" style="stroke:grey; stroke-width:2;" />
</g>
<g transform="rotate(-11.25,0,0)">
<defs>
  <path id="texti39" d="M166.68,33.16 A169.95,169.95 0 0 0 166.68,-33.16" />
</defs>
<text font-size="13" font-family="Times New Roman,serif">
  <textPath href="#texti39" startOffset="25.22%">+ Eden</textPath>
</text>
<path d="M170.66,33.95 L144.18,28.68" style="stroke:grey; stroke-width:2;" />
</g>
<g transform="rotate(33.75,0,0)">
<defs>
  <path id="texti38" d="M141.31,94.42 A169.95,169.95 0 0 0 141.31,-94.42" />
</defs>
<text font-size="13" font-family="Times New Roman,serif">
  <textPath href="#texti38" startOffset="36.83%">+ Elanor</textPath>
</text>
<path d="M144.68,96.67 L122.23,81.67" style="stroke:grey; stroke-width:2;" />
</g>
</g>
<g transform="rotate(56.25,0,0)">
<path style="stroke:grey; stroke-width:2; fill:lightblue;"
d="M170.66,-33.95
A174.0,174.0 0 0 1 170.66,33.95
L227.54,45.26
A232.0,232.0 0 0 0 227.54,-45.26
z" />
<defs>
  <path id="texti22" d="M219.01,43.56 A223.3,223.3 0 0 0 219.01,-43.56" />
</defs>
<text font-size="13" font-family="Times New Roman,serif">
  <textPath href="#texti22" startOffset="36.0%">Ezra</textPath>
</text>
</g>
<g transform="rotate(123.75,0,0)">
<path style="stroke:grey; stroke-width:2; fill:lightblue;"
d="M170.66,-33.95
A174.0,174.0 0 0 1 170.66,33.95
L227.54,45.26
A232.0,232.0 0 0 0 227.54,-45.26
z" />
<defs>
  <path id="texti42" d="M219.01,43.56 A223.3,223.3 0 0 0 219.01,-43.56" />
</defs>
<text font-size="13" font-family="Times New Roman,serif">
  <textPath href="#texti42" startOffset="36.0%">Emma</textPath>
</text>
</g>
<g transform="rotate(146.25,0,0)">
<path style="stroke:grey; stroke-width:2; fill:yellowgreen;"
d="M170.66,-33.95
A174.0,174.0 0 0 1 170.66,33.95
L227.54,45.26
A232.0,232.0 0 0 0 227.54,-45.26
z" />
<defs>
  <path id="texti43" d="M219.01,43.56 A223.3,223.3 0 0 0 219.01,-43.56" />
</defs>
<text font-size="13" font-family="Times New Roman,serif">
  <textPath href="#texti43" startOffset="36.0%">Erin</textPath>
</text>
</g>
<g transform="rotate(168.75,0,0)">
<path style="stroke:grey; stroke-width:2; fill:mediumturquoise;"
d="M170.66,-33.95
A174.0,174.0 0 0 1 170.66,33.95
L227.54,45.26
A232.0,232.0 0 0 0 227.54,-45.26
z" />
<defs>
  <path id="texti44" d="M219.01,43.56 A223.3,223.3 0 0 0 219.01,-43.56" />
</defs>
<text font-size="13" font-family="Times New Roman,serif">
  <textPath href="#texti44" startOffset="36.0%">Eric</textPath>
</text>
</g>
<g transform="rotate(191.25,0,0)">
<path style="stroke:grey; stroke-width:2; fill:coral;"
d="M56.89,-11.32
A58.0,58.0 0 0 1 56.89,11.32
L113.77,22.63
A116.0,116.0 0 0 0 113.77,-22.63
z" />
<defs>
  <path id="texti23" d="M81.06,16.12 A82.65,82.65 0 0 0 81.06,-16.12" />
</defs>
<text font-size="13" font-family="Times New Roman,serif">
  <textPath href="#texti23" startOffset="13.94%">Faith</textPath>
</text>
<g transform="rotate(0.0,0,0)">
<defs>
  <path id="texti24" d="M109.8,21.84 A111.95,111.95 0 0 0 109.8,-21.84" />
</defs>
<text font-size="13" font-family="Times New Roman,serif">
  <textPath href="#texti24" startOffset="10.37%">+ Felix</textPath>
</text>
<path d="M113.77,22.63 L87.29,17.36" style="stroke:grey; stroke-width:2;" />
</g>
</g>
<g transform="rotate(191.25,0,0)">
<path style="stroke:grey; stroke-width:2; fill:coral;"
d="M113.77,-22.63
A116.0,116.0 0 0 1 113.77,22.63
L170.66,33.95
A174.0,174.0 0 0 0 170.66,-33.95
z" />
<defs>
  <path id="texti25" d="M137.95,27.44 A140.65,140.65 0 0 0 137.95,-27.44" />
</defs>
<text font-size="13" font-family="Times New Roman,serif">
  <textPath href="#texti25" startOffset="30.41%">Fred</textPath>
</text>
<g transform="rotate(0.0,0,0)">
<defs>
  <path id="texti26" d="M166.68,33.16 A169.95,169.95 0 0 0 166.68,-33.16" />
</defs>
<text font-size="13" font-family="Times New Roman,serif">
  <textPath href="#texti26" startOffset="22.36%">+ Flora</textPath>
</text>
<path d="M170.66,33.95 L144.18,28.68" style="stroke:grey; stroke-width:2;" />
</g>
</g>
<g transform="rotate(191.25,0,0)">
<path style="stroke:grey; stroke-width:2; fill:coral;"
d="M170.66,-33.95
A174.0,174.0 0 0 1 170.66,33.95
L227.54,45.26
A232.0,232.0 0 0 0 227.54,-45.26
z" />
<defs>
  <path id="texti27" d="M219.01,43.56 A223.3,223.3 0 0 0 219.01,-43.56" />
</defs>
<text font-size="13" font-family="Times New Roman,serif">
  <textPath href="#texti27" startOffset="29.46%">Forrest</textPath>
</text>
</g>
<g transform="rotate(236.25,0,0)">
<path style="stroke:grey; stroke-width:2; fill:khaki;"
d="M48.23,-32.22
A58.0,58.0 0 0 1 48.23,32.22
L96.45,64.45
A116.0,116.0 0 0 0 96.45,-64.45
z" />
<defs>
  <path id="texti28" d="M68.72,45.92 A82.65,82.65 0 0 0 68.72,-45.92" />
</defs>
<text font-size="13" font-family="Times New Roman,serif">
  <textPath href="#texti28" startOffset="34.98%">Henry</textPath>
</text>
<g transform="rotate(0.0,0,0)">
<defs>
  <path id="texti29" d="M93.08,62.2 A111.95,111.95 0 0 0 93.08,-62.2" />
</defs>
<text font-size="13" font-family="Times New Roman,serif">
  <textPath href="#texti29" startOffset="33.79%">+ Holly</textPath>
</text>
<path d="M96.45,64.45 L74.0,49.45" style="stroke:grey; stroke-width:2;" />
</g>
</g>
<g transform="rotate(236.25,0,0)">
<path style="stroke:grey; stroke-width:2; fill:khaki;"
d="M96.45,-64.45
A116.0,116.0 0 0 1 96.45,64.45
L144.68,96.67
A174.0,174.0 0 0 0 144.68,-96.67
z" />
<defs>
  <path id="texti30" d="M116.95,78.14 A140.65,140.65 0 0 0 116.95,-78.14" />
</defs>
<text font-size="13" font-family="Times New Roman,serif">
  <textPath href="#texti30" startOffset="40.47%">Hope</textPath>
</text>
<g transform="rotate(0.0,0,0)">
<defs>
  <path id="texti31" d="M141.31,94.42 A169.95,169.95 0 0 0 141.31,-94.42" />
</defs>
<text font-size="13" font-family="Times New Roman,serif">
  <textPath href="#texti31" startOffset="36.83%">+ Hunter</textPath>
</text>
<path d="M144.68,96.67 L122.23,81.67" style="stroke:grey; stroke-width:2;" />
</g>
</g>
<g transform="rotate(213.75,0,0)">
<path style="stroke:grey; stroke-width:2; fill:khaki;"
d="M170.66,-33.95
A174.0,174.0 0 0 1 170.66,33.95
L227.54,45.26
A232.0,232.0 0 0 0 227.54,-45.26
z" />
<defs>
  <path id="texti32" d="M194.83,38.75 A198.65,198.65 0 0 0 194.83,-38.75" />
</defs>
<text font-size="13" font-family="Times New Roman,serif">
  <textPath href="#texti32" startOffset="29.92%">Hannah</textPath>
</text>
<g transform="rotate(0.0,0,0)">
<defs>
  <path id="texti33" d="M223.57,44.47 A227.95,227.95 0 0 0 223.57,-44.47" />
</defs>
<text font-size="13" font-family="Times New Roman,serif">
  <textPath href="#texti33" startOffset="26.11%">+ Harvey</textPath>
</text>
<path d="M227.54,45.26 L201.06,39.99" style="stroke:grey; stroke-width:2;" />
</g>
</g>
<g transform="rotate(236.25,0,0)">
<path style="stroke:grey; stroke-width:2; fill:lightsteelblue;"
d="M170.66,-33.95
A174.0,174.0 0 0 1 170.66,33.95
L227.54,45.26
A232.0,232.0 0 0 0 227.54,-45.26
z" />
<defs>
  <path id="texti34" d="M194.83,38.75 A198.65,198.65 0 0 0 194.83,-38.75" />
</defs>
<text font-size="13" font-family="Times New Roman,serif">
  <textPath href="#texti34" startOffset="32.37%">Hazel</textPath>
</text>
<g transform="rotate(0.0,0,0)">
<defs>
  <path id="texti35" d="M223.57,44.47 A227.95,227.95 0 0 0 223.57,-44.47" />
</defs>
<text font-size="13" font-family="Times New Roman,serif">
  <textPath href="#texti35" startOffset="30.38%">+ Hank</textPath>
</text>
<path d="M227.54,45.26 L201.06,39.99" style="stroke:grey; stroke-width:2;" />
</g>
</g>
<g transform="rotate(258.75,0,0)">
<path style="stroke:grey; stroke-width:2; fill:thistle;"
d="M170.66,-33.95
A174.0,174.0 0 0 1 170.66,33.95
L227.54,45.26
A232.0,232.0 0 0 0 227.54,-45.26
z" />
<defs>
  <path id="texti36" d="M194.83,38.75 A198.65,198.65 0 0 0 194.83,-38.75" />
</defs>
<text font-size="13" font-family="Times New Roman,serif">
  <textPath href="#texti36" startOffset="32.37%">Helen</textPath>
</text>
<g transform="rotate(0.0,0,0)">
<defs>
  <path id="texti37" d="M223.57,44.47 A227.95,227.95 0 0 0 223.57,-44.47" />
</defs>
<text font-size="13" font-family="Times New Roman,serif">
  <textPath href="#texti37" startOffset="26.11%">+ Hudson</textPath>
</text>
<path d="M227.54,45.26 L201.06,39.99" style="stroke:grey; stroke-width:2;" />
</g>
</g>
<circle cx="0" cy="0" fill="none" stroke-width="2" stroke="grey" r="58.0"/>
<circle cx="0" cy="0" fill="none" stroke-width="2" stroke="grey" r="116.0"/>
<circle cx="0" cy="0" fill="none" stroke-width="2" stroke="grey" r="174.0"/>
<circle cx="0" cy="0" fill="none" stroke-width="2" stroke="grey" r="232.0"/>
<circle cx="0" cy="0" fill="none" stroke-width="2" stroke="grey" r="290.0"/>
</g>
</svg>
