<?xml version="1.0" standalone="no"?>
<!-- generated by fan-chart.py 0.7.2 -->
<svg width="600pt" height="600pt"
 viewBox="0.00 0.00 600.00 600.00"
 version="1.1"
 xmlns="http://www.w3.org/2000/svg"
 xmlns:xlink="http://www.w3.org/1999/xlink">
<g transform="translate(300.0,300.0)">
<g transform="rotate(0,0,0)">
<path id="texti1" d="M4.8,54.89 A55.1,55.1 0 0 0 4.8,-54.89" style="fill:none;" />
<text  font-size="20" font-family="Times New Roman,serif">
 <textPath xlink:href="#texti1" startOffset="13.26%">Papa Bennis</textPath>
</text>
</g>
<g transform="rotate(180,0,0)">
<path id="texti2" d="M4.8,54.89 A55.1,55.1 0 0 0 4.8,-54.89" style="fill:none;" />
<text  font-size="20" font-family="Times New Roman,serif">
 <textPath xlink:href="#texti2" startOffset="8.72%">+ Nana Potter</textPath>
</text>
</g>
<g transform="rotate(-78.75,0,0)">
<path style="stroke:grey; stroke-width:2; fill:mediumturquoise;"
d="M56.89,-11.32
A58.0,58.0 0 0 1 56.89,11.32
L113.77,22.63
A116.0,116.0 0 0 0 113.77,-22.63
z" />
<path id="texti3" d="M108.08,21.5 A110.2,110.2 0 0 0 108.08,-21.5" style="fill:none;" />
<text  font-size="6.38" font-family="Times New Roman,serif">
 <textPath xlink:href="#texti3" startOffset="3.5%">Alice Bennis</textPath>
</text>
</g>
<g transform="rotate(-56.25,0,0)">
<path style="stroke:grey; stroke-width:2; fill:thistle;"
d="M56.89,-11.32
A58.0,58.0 0 0 1 56.89,11.32
L113.77,22.63
A116.0,116.0 0 0 0 113.77,-22.63
z" />
<path id="texti4" d="M82.48,16.41 A84.1,84.1 0 0 0 82.48,-16.41" style="fill:none;" />
<text  font-size="5.86" font-family="Times New Roman,serif">
 <textPath xlink:href="#texti4" startOffset="3.5%">Bob Bennis</textPath>
</text>
<g transform="rotate(0.0,0,0)">
<path id="texti6" d="M111.12,22.1 A113.3,113.3 0 0 0 111.12,-22.1" style="fill:none;" />
<text  font-size="5.57" font-family="Times New Roman,serif">
 <textPath xlink:href="#texti6" startOffset="3.5%">+ Betty MacLean</textPath>
</text>
<path d="M113.77,22.63 L87.29,17.36" style="stroke:grey; stroke-width:2;" />
</g>
</g>
<g transform="rotate(-22.5,0,0)">
<path style="stroke:grey; stroke-width:2; fill:mistyrose;"
d="M53.59,-22.2
A58.0,58.0 0 0 1 53.59,22.2
L107.17,44.39
A116.0,116.0 0 0 0 107.17,-44.39
z" />
<path id="texti5" d="M77.7,32.18 A84.1,84.1 0 0 0 77.7,-32.18" style="fill:none;" />
<text  font-size="10.5" font-family="Times New Roman,serif">
 <textPath xlink:href="#texti5" startOffset="3.5%">Carol Bennis</textPath>
</text>
<g transform="rotate(-11.25,0,0)">
<path id="texti40" d="M111.12,22.1 A113.3,113.3 0 0 0 111.12,-22.1" style="fill:none;" />
<text  font-size="6.84" font-family="Times New Roman,serif">
 <textPath xlink:href="#texti40" startOffset="3.5%">+ Chas Tower</textPath>
</text>
<path d="M113.77,22.63 L87.29,17.36" style="stroke:grey; stroke-width:2;" />
</g>
<g transform="rotate(11.25,0,0)">
<path id="texti7" d="M111.12,22.1 A113.3,113.3 0 0 0 111.12,-22.1" style="fill:none;" />
<text  font-size="7.67" font-family="Times New Roman,serif">
 <textPath xlink:href="#texti7" startOffset="3.5%">+ Carl Rosta</textPath>
</text>
<path d="M113.77,22.63 L87.29,17.36" style="stroke:grey; stroke-width:2;" />
</g>
</g>
<g transform="rotate(-33.75,0,0)">
<path style="stroke:grey; stroke-width:2; fill:mistyrose;"
d="M113.77,-22.63
A116.0,116.0 0 0 1 113.77,22.63
L170.66,33.95
A174.0,174.0 0 0 0 170.66,-33.95
z" />
<path id="texti41" d="M164.97,32.81 A168.2,168.2 0 0 0 164.97,-32.81" style="fill:none;" />
<text  font-size="9.39" font-family="Times New Roman,serif">
 <textPath xlink:href="#texti41" startOffset="3.5%">Connor Tower</textPath>
</text>
</g>
<g transform="rotate(-11.25,0,0)">
<path style="stroke:grey; stroke-width:2; fill:mistyrose;"
d="M113.77,-22.63
A116.0,116.0 0 0 1 113.77,22.63
L170.66,33.95
A174.0,174.0 0 0 0 170.66,-33.95
z" />
<path id="texti8" d="M164.97,32.81 A168.2,168.2 0 0 0 164.97,-32.81" style="fill:none;" />
<text  font-size="11.77" font-family="Times New Roman,serif">
 <textPath xlink:href="#texti8" startOffset="3.5%">Chris Rosta</textPath>
</text>
</g>
<g transform="rotate(22.5,0,0)">
<path style="stroke:grey; stroke-width:2; fill:lightseagreen;"
d="M53.59,-22.2
A58.0,58.0 0 0 1 53.59,22.2
L107.17,44.39
A116.0,116.0 0 0 0 107.17,-44.39
z" />
<path id="texti9" d="M77.7,32.18 A84.1,84.1 0 0 0 77.7,-32.18" style="fill:none;" />
<text  font-size="10.06" font-family="Times New Roman,serif">
 <textPath xlink:href="#texti9" startOffset="3.5%">David Bennis</textPath>
</text>
<g transform="rotate(0.0,0,0)">
<path id="texti10" d="M104.68,43.36 A113.3,113.3 0 0 0 104.68,-43.36" style="fill:none;" />
<text  font-size="9.1" font-family="Times New Roman,serif">
 <textPath xlink:href="#texti10" startOffset="3.5%">+ Denise MacDonald</textPath>
</text>
<path d="M107.17,44.39 L82.23,34.06" style="stroke:grey; stroke-width:2;" />
</g>
</g>
<g transform="rotate(11.25,0,0)">
<path style="stroke:grey; stroke-width:2; fill:lightseagreen;"
d="M113.77,-22.63
A116.0,116.0 0 0 1 113.77,22.63
L170.66,33.95
A174.0,174.0 0 0 0 170.66,-33.95
z" />
<path id="texti11" d="M139.37,27.72 A142.1,142.1 0 0 0 139.37,-27.72" style="fill:none;" />
<text  font-size="7.74" font-family="Times New Roman,serif">
 <textPath xlink:href="#texti11" startOffset="3.5%">Daphnie Bennis</textPath>
</text>
<g transform="rotate(0.0,0,0)">
<path id="texti13" d="M168.01,33.42 A171.3,171.3 0 0 0 168.01,-33.42" style="fill:none;" />
<text  font-size="8.1" font-family="Times New Roman,serif">
 <textPath xlink:href="#texti13" startOffset="3.5%">+ Dexter MacInnis</textPath>
</text>
<path d="M170.66,33.95 L144.18,28.68" style="stroke:grey; stroke-width:2;" />
</g>
</g>
<g transform="rotate(11.25,0,0)">
<path style="stroke:grey; stroke-width:2; fill:lightseagreen;"
d="M170.66,-33.95
A174.0,174.0 0 0 1 170.66,33.95
L227.54,45.26
A232.0,232.0 0 0 0 227.54,-45.26
z" />
<path id="texti14" d="M196.26,39.04 A200.1,200.1 0 0 0 196.26,-39.04" style="fill:none;" />
<text  font-size="10.48" font-family="Times New Roman,serif">
 <textPath xlink:href="#texti14" startOffset="3.5%">Dennis MacInnis</textPath>
</text>
<g transform="rotate(0.0,0,0)">
<path id="texti15" d="M224.89,44.73 A229.3,229.3 0 0 0 224.89,-44.73" style="fill:none;" />
<text  font-size="14.62" font-family="Times New Roman,serif">
 <textPath xlink:href="#texti15" startOffset="3.5%">+ Daisy Stone</textPath>
</text>
<path d="M227.54,45.26 L201.06,39.99" style="stroke:grey; stroke-width:2;" />
</g>
</g>
<g transform="rotate(11.25,0,0)">
<path style="stroke:grey; stroke-width:2; fill:lightseagreen;"
d="M227.54,-45.26
A232.0,232.0 0 0 1 227.54,45.26
L284.43,56.58
A290.0,290.0 0 0 0 284.43,-56.58
z" />
<path id="texti16" d="M278.74,55.44 A284.2,284.2 0 0 0 278.74,-55.44" style="fill:none;" />
<text  font-size="15.89" font-family="Times New Roman,serif">
 <textPath xlink:href="#texti16" startOffset="3.5%">Demi MacInnis</textPath>
</text>
</g>
<g transform="rotate(33.75,0,0)">
<path style="stroke:grey; stroke-width:2; fill:khaki;"
d="M113.77,-22.63
A116.0,116.0 0 0 1 113.77,22.63
L170.66,33.95
A174.0,174.0 0 0 0 170.66,-33.95
z" />
<path id="texti12" d="M164.97,32.81 A168.2,168.2 0 0 0 164.97,-32.81" style="fill:none;" />
<text  font-size="10.52" font-family="Times New Roman,serif">
 <textPath xlink:href="#texti12" startOffset="3.5%">Drew Bennis</textPath>
</text>
</g>
<g transform="rotate(112.5,0,0)">
<path style="stroke:grey; stroke-width:2; fill:lightblue;"
d="M22.2,-53.59
A58.0,58.0 0 0 1 22.2,53.59
L44.39,107.17
A116.0,116.0 0 0 0 44.39,-107.17
z" />
<path id="texti17" d="M32.18,77.7 A84.1,84.1 0 0 0 32.18,-77.7" style="fill:none;" />
<text  font-size="20" font-family="Times New Roman,serif">
 <textPath xlink:href="#texti17" startOffset="27.46%">Ed Bennis</textPath>
</text>
<g transform="rotate(0.0,0,0)">
<path id="texti18" d="M43.36,104.68 A113.3,113.3 0 0 0 43.36,-104.68" style="fill:none;" />
<text  font-size="20" font-family="Times New Roman,serif">
 <textPath xlink:href="#texti18" startOffset="20.0%">+ Edna McPherson</textPath>
</text>
<path d="M44.39,107.17 L34.06,82.23" style="stroke:grey; stroke-width:2;" />
</g>
</g>
<g transform="rotate(112.5,0,0)">
<path style="stroke:grey; stroke-width:2; fill:lightblue;"
d="M44.39,-107.17
A116.0,116.0 0 0 1 44.39,107.17
L66.59,160.76
A174.0,174.0 0 0 0 66.59,-160.76
z" />
<path id="texti19" d="M54.38,131.28 A142.1,142.1 0 0 0 54.38,-131.28" style="fill:none;" />
<text  font-size="20" font-family="Times New Roman,serif">
 <textPath xlink:href="#texti19" startOffset="35.3%">Elias Bennis</textPath>
</text>
<g transform="rotate(-33.75,0,0)">
<path id="texti38" d="M142.43,95.17 A171.3,171.3 0 0 0 142.43,-95.17" style="fill:none;" />
<text  font-size="20" font-family="Times New Roman,serif">
 <textPath xlink:href="#texti38" startOffset="17.23%">+ Elanor Amber</textPath>
</text>
<path d="M144.68,96.67 L122.23,81.67" style="stroke:grey; stroke-width:2;" />
</g>
<g transform="rotate(11.25,0,0)">
<path id="texti21" d="M168.01,33.42 A171.3,171.3 0 0 0 168.01,-33.42" style="fill:none;" />
<text  font-size="10.13" font-family="Times New Roman,serif">
 <textPath xlink:href="#texti21" startOffset="3.5%">+ Eliza Anders</textPath>
</text>
<path d="M170.66,33.95 L144.18,28.68" style="stroke:grey; stroke-width:2;" />
</g>
<g transform="rotate(33.75,0,0)">
<path id="texti20" d="M168.01,33.42 A171.3,171.3 0 0 0 168.01,-33.42" style="fill:none;" />
<text  font-size="9.35" font-family="Times New Roman,serif">
 <textPath xlink:href="#texti20" startOffset="3.5%">+ Eva Anderson</textPath>
</text>
<path d="M170.66,33.95 L144.18,28.68" style="stroke:grey; stroke-width:2;" />
</g>
<g transform="rotate(56.25,0,0)">
<path id="texti39" d="M168.01,33.42 A171.3,171.3 0 0 0 168.01,-33.42" style="fill:none;" />
<text  font-size="11.2" font-family="Times New Roman,serif">
 <textPath xlink:href="#texti39" startOffset="3.5%">+ Eden Aport</textPath>
</text>
<path d="M170.66,33.95 L144.18,28.68" style="stroke:grey; stroke-width:2;" />
</g>
</g>
<g transform="rotate(56.25,0,0)">
<path style="stroke:grey; stroke-width:2; fill:lightblue;"
d="M170.66,-33.95
A174.0,174.0 0 0 1 170.66,33.95
L227.54,45.26
A232.0,232.0 0 0 0 227.54,-45.26
z" />
<path id="texti42" d="M221.85,44.13 A226.2,226.2 0 0 0 221.85,-44.13" style="fill:none;" />
<text  font-size="13.58" font-family="Times New Roman,serif">
 <textPath xlink:href="#texti42" startOffset="3.5%">Emma Bennis</textPath>
</text>
</g>
<g transform="rotate(78.75,0,0)">
<path style="stroke:grey; stroke-width:2; fill:yellowgreen;"
d="M170.66,-33.95
A174.0,174.0 0 0 1 170.66,33.95
L227.54,45.26
A232.0,232.0 0 0 0 227.54,-45.26
z" />
<path id="texti43" d="M221.85,44.13 A226.2,226.2 0 0 0 221.85,-44.13" style="fill:none;" />
<text  font-size="16.27" font-family="Times New Roman,serif">
 <textPath xlink:href="#texti43" startOffset="3.5%">Erin Bennis</textPath>
</text>
</g>
<g transform="rotate(101.25,0,0)">
<path style="stroke:grey; stroke-width:2; fill:mediumturquoise;"
d="M170.66,-33.95
A174.0,174.0 0 0 1 170.66,33.95
L227.54,45.26
A232.0,232.0 0 0 0 227.54,-45.26
z" />
<path id="texti44" d="M221.85,44.13 A226.2,226.2 0 0 0 221.85,-44.13" style="fill:none;" />
<text  font-size="16.27" font-family="Times New Roman,serif">
 <textPath xlink:href="#texti44" startOffset="3.5%">Erik Bennis</textPath>
</text>
</g>
<g transform="rotate(123.75,0,0)">
<path style="stroke:grey; stroke-width:2; fill:lightblue;"
d="M170.66,-33.95
A174.0,174.0 0 0 1 170.66,33.95
L227.54,45.26
A232.0,232.0 0 0 0 227.54,-45.26
z" />
<path id="texti22" d="M221.85,44.13 A226.2,226.2 0 0 0 221.85,-44.13" style="fill:none;" />
<text  font-size="15.85" font-family="Times New Roman,serif">
 <textPath xlink:href="#texti22" startOffset="3.5%">Ezra Bennis</textPath>
</text>
</g>
<g transform="rotate(191.25,0,0)">
<path style="stroke:grey; stroke-width:2; fill:coral;"
d="M56.89,-11.32
A58.0,58.0 0 0 1 56.89,11.32
L113.77,22.63
A116.0,116.0 0 0 0 113.77,-22.63
z" />
<path id="texti23" d="M82.48,16.41 A84.1,84.1 0 0 0 82.48,-16.41" style="fill:none;" />
<text  font-size="5.43" font-family="Times New Roman,serif">
 <textPath xlink:href="#texti23" startOffset="3.5%">Faith Bennis</textPath>
</text>
<g transform="rotate(0.0,0,0)">
<path id="texti24" d="M111.12,22.1 A113.3,113.3 0 0 0 111.12,-22.1" style="fill:none;" />
<text  font-size="6.27" font-family="Times New Roman,serif">
 <textPath xlink:href="#texti24" startOffset="3.5%">+ Felix Macron</textPath>
</text>
<path d="M113.77,22.63 L87.29,17.36" style="stroke:grey; stroke-width:2;" />
</g>
</g>
<g transform="rotate(191.25,0,0)">
<path style="stroke:grey; stroke-width:2; fill:coral;"
d="M113.77,-22.63
A116.0,116.0 0 0 1 113.77,22.63
L170.66,33.95
A174.0,174.0 0 0 0 170.66,-33.95
z" />
<path id="texti25" d="M139.37,27.72 A142.1,142.1 0 0 0 139.37,-27.72" style="fill:none;" />
<text  font-size="9.61" font-family="Times New Roman,serif">
 <textPath xlink:href="#texti25" startOffset="3.5%">Fred Macron</textPath>
</text>
<g transform="rotate(0.0,0,0)">
<path id="texti26" d="M168.01,33.42 A171.3,171.3 0 0 0 168.01,-33.42" style="fill:none;" />
<text  font-size="11.27" font-family="Times New Roman,serif">
 <textPath xlink:href="#texti26" startOffset="3.5%">+ Flora Jason</textPath>
</text>
<path d="M170.66,33.95 L144.18,28.68" style="stroke:grey; stroke-width:2;" />
</g>
</g>
<g transform="rotate(191.25,0,0)">
<path style="stroke:grey; stroke-width:2; fill:coral;"
d="M170.66,-33.95
A174.0,174.0 0 0 1 170.66,33.95
L227.54,45.26
A232.0,232.0 0 0 0 227.54,-45.26
z" />
<path id="texti27" d="M221.85,44.13 A226.2,226.2 0 0 0 221.85,-44.13" style="fill:none;" />
<text  font-size="12.57" font-family="Times New Roman,serif">
 <textPath xlink:href="#texti27" startOffset="3.5%">Forrest Macron</textPath>
</text>
</g>
<g transform="rotate(236.25,0,0)">
<path style="stroke:grey; stroke-width:2; fill:khaki;"
d="M48.23,-32.22
A58.0,58.0 0 0 1 48.23,32.22
L96.45,64.45
A116.0,116.0 0 0 0 96.45,-64.45
z" />
<path id="texti28" d="M69.93,46.72 A84.1,84.1 0 0 0 69.93,-46.72" style="fill:none;" />
<text  font-size="14.97" font-family="Times New Roman,serif">
 <textPath xlink:href="#texti28" startOffset="3.5%">Henry Bennis</textPath>
</text>
<g transform="rotate(0.0,0,0)">
<path id="texti29" d="M94.21,62.95 A113.3,113.3 0 0 0 94.21,-62.95" style="fill:none;" />
<text  font-size="20" font-family="Times New Roman,serif">
 <textPath xlink:href="#texti29" startOffset="3.74%">+ Holly Miller</textPath>
</text>
<path d="M96.45,64.45 L74.0,49.45" style="stroke:grey; stroke-width:2;" />
</g>
</g>
<g transform="rotate(236.25,0,0)">
<path style="stroke:grey; stroke-width:2; fill:khaki;"
d="M96.45,-64.45
A116.0,116.0 0 0 1 96.45,64.45
L144.68,96.67
A174.0,174.0 0 0 0 144.68,-96.67
z" />
<path id="texti30" d="M118.15,78.95 A142.1,142.1 0 0 0 118.15,-78.95" style="fill:none;" />
<text  font-size="20" font-family="Times New Roman,serif">
 <textPath xlink:href="#texti30" startOffset="18.04%">Hope Bennis</textPath>
</text>
<g transform="rotate(0.0,0,0)">
<path id="texti31" d="M142.43,95.17 A171.3,171.3 0 0 0 142.43,-95.17" style="fill:none;" />
<text  font-size="20" font-family="Times New Roman,serif">
 <textPath xlink:href="#texti31" startOffset="13.0%">+ Hunter Stockley</textPath>
</text>
<path d="M144.68,96.67 L122.23,81.67" style="stroke:grey; stroke-width:2;" />
</g>
</g>
<g transform="rotate(213.75,0,0)">
<path style="stroke:grey; stroke-width:2; fill:khaki;"
d="M170.66,-33.95
A174.0,174.0 0 0 1 170.66,33.95
L227.54,45.26
A232.0,232.0 0 0 0 227.54,-45.26
z" />
<path id="texti32" d="M196.26,39.04 A200.1,200.1 0 0 0 196.26,-39.04" style="fill:none;" />
<text  font-size="10.42" font-family="Times New Roman,serif">
 <textPath xlink:href="#texti32" startOffset="3.5%">Hannah Stockley</textPath>
</text>
<g transform="rotate(0.0,0,0)">
<path id="texti33" d="M224.89,44.73 A229.3,229.3 0 0 0 224.89,-44.73" style="fill:none;" />
<text  font-size="13.77" font-family="Times New Roman,serif">
 <textPath xlink:href="#texti33" startOffset="3.5%">+ Harvey Hunt</textPath>
</text>
<path d="M227.54,45.26 L201.06,39.99" style="stroke:grey; stroke-width:2;" />
</g>
</g>
<g transform="rotate(236.25,0,0)">
<path style="stroke:grey; stroke-width:2; fill:lightsteelblue;"
d="M170.66,-33.95
A174.0,174.0 0 0 1 170.66,33.95
L227.54,45.26
A232.0,232.0 0 0 0 227.54,-45.26
z" />
<path id="texti34" d="M196.26,39.04 A200.1,200.1 0 0 0 196.26,-39.04" style="fill:none;" />
<text  font-size="11.77" font-family="Times New Roman,serif">
 <textPath xlink:href="#texti34" startOffset="3.5%">Hazel Stockley</textPath>
</text>
<g transform="rotate(0.0,0,0)">
<path id="texti35" d="M224.89,44.73 A229.3,229.3 0 0 0 224.89,-44.73" style="fill:none;" />
<text  font-size="15.37" font-family="Times New Roman,serif">
 <textPath xlink:href="#texti35" startOffset="3.5%">+ Hank Oster</textPath>
</text>
<path d="M227.54,45.26 L201.06,39.99" style="stroke:grey; stroke-width:2;" />
</g>
</g>
<g transform="rotate(258.75,0,0)">
<path style="stroke:grey; stroke-width:2; fill:thistle;"
d="M170.66,-33.95
A174.0,174.0 0 0 1 170.66,33.95
L227.54,45.26
A232.0,232.0 0 0 0 227.54,-45.26
z" />
<path id="texti36" d="M196.26,39.04 A200.1,200.1 0 0 0 196.26,-39.04" style="fill:none;" />
<text  font-size="11.69" font-family="Times New Roman,serif">
 <textPath xlink:href="#texti36" startOffset="3.5%">Helen Stockley</textPath>
</text>
<g transform="rotate(0.0,0,0)">
<path id="texti37" d="M224.89,44.73 A229.3,229.3 0 0 0 224.89,-44.73" style="fill:none;" />
<text  font-size="12.0" font-family="Times New Roman,serif">
 <textPath xlink:href="#texti37" startOffset="3.5%">+ Hudson Xavier</textPath>
</text>
<path d="M227.54,45.26 L201.06,39.99" style="stroke:grey; stroke-width:2;" />
</g>
</g>
<circle cx="0" cy="0" fill="none" stroke-width="2" stroke="grey" r="58.0"/>
<circle cx="0" cy="0" fill="none" stroke-width="2" stroke="grey" r="116.0"/>
<circle cx="0" cy="0" fill="none" stroke-width="2" stroke="grey" r="174.0"/>
<circle cx="0" cy="0" fill="none" stroke-width="2" stroke="grey" r="232.0"/>
<circle cx="0" cy="0" fill="none" stroke-width="2" stroke="grey" r="290.0"/>
</g>
</svg>
