<?xml version="1.0" standalone="no"?>
<!-- generated by fan-chart.py 0.1.5 -->
<svg width="600pt" height="600pt"
 viewBox="0.00 0.00 600.00 600.00"
 version="1.1"
 xmlns="http://www.w3.org/2000/svg"
 xmlns:xlink="http://www.w3.org/1999/xlink">
<g transform="translate(300.0,300.0) rotate(-76.2,0,0)">
<path style="stroke:grey; fill:mediumturquoise;"
d="M56.33,-13.83
A58.0,58.0 0 0 1 56.33,13.83
L112.65,27.67
A116.0,116.0 0 0 0 112.65,-27.67
z" />
<path d="M112.65,27.67 112.65,-27.67" style="stroke:red;" />
<g transform=" rotate(-90,112.65,27.67)">
<text font-size="16" font-family="Times New Roman,serif"
 x="112.65" y="27.67">Alice</text>
</g>
</g>
<g transform="translate(300.0,300.0) rotate(-48.55,0,0)">
<path style="stroke:grey; fill:thistle;"
d="M56.31,-13.88
A58.0,58.0 0 0 1 56.31,13.88
L112.63,27.77
A116.0,116.0 0 0 0 112.63,-27.77
z" />
<path d="M112.63,27.77 112.63,-27.77" style="stroke:red;" />
<g transform=" rotate(-90,112.63,27.77)">
<text font-size="16" font-family="Times New Roman,serif"
 x="112.63" y="27.77">Bob</text>
</g>
</g>
<g transform="translate(300.0,300.0) rotate(-20.85,0,0)">
<path style="stroke:grey; fill:mistyrose;"
d="M56.31,-13.88
A58.0,58.0 0 0 1 56.31,13.88
L112.63,27.77
A116.0,116.0 0 0 0 112.63,-27.77
z" />
<path d="M112.63,27.77 112.63,-27.77" style="stroke:red;" />
<g transform=" rotate(-90,112.63,27.77)">
<text font-size="16" font-family="Times New Roman,serif"
 x="112.63" y="27.77">Carol</text>
</g>
</g>
<g transform="translate(300.0,300.0) rotate(-20.9,0,0)">
<path style="stroke:grey; fill:mistyrose;"
d="M112.65,-27.67
A116.0,116.0 0 0 1 112.65,27.67
L168.98,41.5
A174.0,174.0 0 0 0 168.98,-41.5
z" />
<path d="M168.98,41.5 168.98,-41.5" style="stroke:red;" />
<g transform=" rotate(-90,168.98,41.5)">
<text font-size="16" font-family="Times New Roman,serif"
 x="168.98" y="41.5">Chris</text>
</g>
</g>
<g transform="translate(300.0,300.0) rotate(20.7,0,0)">
<path style="stroke:grey; fill:lightseagreen;"
d="M51.35,-26.96
A58.0,58.0 0 0 1 51.35,26.96
L102.71,53.92
A116.0,116.0 0 0 0 102.71,-53.92
z" />
<path d="M102.71,53.92 102.71,-53.92" style="stroke:red;" />
<g transform=" rotate(-90,102.71,53.92)">
<text font-size="16" font-family="Times New Roman,serif"
 x="102.71" y="53.92">David</text>
</g>
</g>
<g transform="translate(300.0,300.0) rotate(6.8,0,0)">
<path style="stroke:grey; fill:lightseagreen;"
d="M112.65,-27.67
A116.0,116.0 0 0 1 112.65,27.67
L168.98,41.5
A174.0,174.0 0 0 0 168.98,-41.5
z" />
<path d="M168.98,41.5 168.98,-41.5" style="stroke:red;" />
<g transform=" rotate(-90,168.98,41.5)">
<text font-size="16" font-family="Times New Roman,serif"
 x="168.98" y="41.5">Daphnie</text>
</g>
</g>
<g transform="translate(300.0,300.0) rotate(6.8,0,0)">
<path style="stroke:grey; fill:lightseagreen;"
d="M168.98,-41.5
A174.0,174.0 0 0 1 168.98,41.5
L225.3,55.34
A232.0,232.0 0 0 0 225.3,-55.34
z" />
<path d="M225.3,55.34 225.3,-55.34" style="stroke:red;" />
<g transform=" rotate(-90,225.3,55.34)">
<text font-size="16" font-family="Times New Roman,serif"
 x="225.3" y="55.34">Dennis</text>
</g>
</g>
<g transform="translate(300.0,300.0) rotate(6.8,0,0)">
<path style="stroke:grey; fill:lightseagreen;"
d="M225.3,-55.34
A232.0,232.0 0 0 1 225.3,55.34
L281.63,69.17
A290.0,290.0 0 0 0 281.63,-69.17
z" />
<path d="M281.63,69.17 281.63,-69.17" style="stroke:red;" />
<g transform=" rotate(-90,281.63,69.17)">
<text font-size="16" font-family="Times New Roman,serif"
 x="281.63" y="69.17">Demi</text>
</g>
</g>
<g transform="translate(300.0,300.0) rotate(34.45,0,0)">
<path style="stroke:grey; fill:khaki;"
d="M112.63,-27.77
A116.0,116.0 0 0 1 112.63,27.77
L168.94,41.65
A174.0,174.0 0 0 0 168.94,-41.65
z" />
<path d="M168.94,41.65 168.94,-41.65" style="stroke:red;" />
<g transform=" rotate(-90,168.94,41.65)">
<text font-size="16" font-family="Times New Roman,serif"
 x="168.94" y="41.65">Drew</text>
</g>
</g>
<g transform="translate(300.0,300.0) rotate(103.8,0,0)">
<path style="stroke:grey; fill:lightblue;"
d="M32.93,-47.74
A58.0,58.0 0 0 1 32.93,47.74
L65.87,95.48
A116.0,116.0 0 0 0 65.87,-95.48
z" />
<path d="M65.87,95.48 65.87,-95.48" style="stroke:red;" />
<g transform=" rotate(-90,65.87,95.48)">
<text font-size="16" font-family="Times New Roman,serif"
 x="65.87" y="95.48">Ed</text>
</g>
</g>
<g transform="translate(300.0,300.0) rotate(103.75,0,0)">
<path style="stroke:grey; fill:lightblue;"
d="M65.95,-95.43
A116.0,116.0 0 0 1 65.95,95.43
L98.93,143.14
A174.0,174.0 0 0 0 98.93,-143.14
z" />
<path d="M98.93,143.14 98.93,-143.14" style="stroke:red;" />
<g transform=" rotate(-90,98.93,143.14)">
<text font-size="16" font-family="Times New Roman,serif"
 x="98.93" y="143.14">Elias</text>
</g>
</g>
<g transform="translate(300.0,300.0) rotate(62.2,0,0)">
<path style="stroke:grey; fill:lightblue;"
d="M168.98,-41.5
A174.0,174.0 0 0 1 168.98,41.5
L225.3,55.34
A232.0,232.0 0 0 0 225.3,-55.34
z" />
<path d="M225.3,55.34 225.3,-55.34" style="stroke:red;" />
<g transform=" rotate(-90,225.3,55.34)">
<text font-size="16" font-family="Times New Roman,serif"
 x="225.3" y="55.34">Ezra</text>
</g>
</g>
<g transform="translate(300.0,300.0) rotate(173.05,0,0)">
<path style="stroke:grey; fill:coral;"
d="M56.31,-13.88
A58.0,58.0 0 0 1 56.31,13.88
L112.63,27.77
A116.0,116.0 0 0 0 112.63,-27.77
z" />
<path d="M112.63,27.77 112.63,-27.77" style="stroke:red;" />
<g transform=" rotate(-90,112.63,27.77)">
<text font-size="16" font-family="Times New Roman,serif"
 x="112.63" y="27.77">Faith</text>
</g>
</g>
<g transform="translate(300.0,300.0) rotate(173.0,0,0)">
<path style="stroke:grey; fill:coral;"
d="M112.65,-27.67
A116.0,116.0 0 0 1 112.65,27.67
L168.98,41.5
A174.0,174.0 0 0 0 168.98,-41.5
z" />
<path d="M168.98,41.5 168.98,-41.5" style="stroke:red;" />
<g transform=" rotate(-90,168.98,41.5)">
<text font-size="16" font-family="Times New Roman,serif"
 x="168.98" y="41.5">Fred</text>
</g>
</g>
<g transform="translate(300.0,300.0) rotate(173.0,0,0)">
<path style="stroke:grey; fill:coral;"
d="M168.98,-41.5
A174.0,174.0 0 0 1 168.98,41.5
L225.3,55.34
A232.0,232.0 0 0 0 225.3,-55.34
z" />
<path d="M225.3,55.34 225.3,-55.34" style="stroke:red;" />
<g transform=" rotate(-90,225.3,55.34)">
<text font-size="16" font-family="Times New Roman,serif"
 x="225.3" y="55.34">Forrest</text>
</g>
</g>
<g transform="translate(300.0,300.0) rotate(228.45,0,0)">
<path style="stroke:grey; fill:khaki;"
d="M43.41,-38.47
A58.0,58.0 0 0 1 43.41,38.47
L86.81,76.94
A116.0,116.0 0 0 0 86.81,-76.94
z" />
<path d="M86.81,76.94 86.81,-76.94" style="stroke:red;" />
<g transform=" rotate(-90,86.81,76.94)">
<text font-size="16" font-family="Times New Roman,serif"
 x="86.81" y="76.94">Henry</text>
</g>
</g>
<g transform="translate(300.0,300.0) rotate(228.4,0,0)">
<path style="stroke:grey; fill:khaki;"
d="M86.88,-76.86
A116.0,116.0 0 0 1 86.88,76.86
L130.32,115.3
A174.0,174.0 0 0 0 130.32,-115.3
z" />
<path d="M130.32,115.3 130.32,-115.3" style="stroke:red;" />
<g transform=" rotate(-90,130.32,115.3)">
<text font-size="16" font-family="Times New Roman,serif"
 x="130.32" y="115.3">Hope</text>
</g>
</g>
<g transform="translate(300.0,300.0) rotate(200.7,0,0)">
<path style="stroke:grey; fill:khaki;"
d="M168.98,-41.5
A174.0,174.0 0 0 1 168.98,41.5
L225.3,55.34
A232.0,232.0 0 0 0 225.3,-55.34
z" />
<path d="M225.3,55.34 225.3,-55.34" style="stroke:red;" />
<g transform=" rotate(-90,225.3,55.34)">
<text font-size="16" font-family="Times New Roman,serif"
 x="225.3" y="55.34">Hannah</text>
</g>
</g>
<g transform="translate(300.0,300.0) rotate(228.35,0,0)">
<path style="stroke:grey; fill:lightsteelblue;"
d="M168.94,-41.65
A174.0,174.0 0 0 1 168.94,41.65
L225.25,55.54
A232.0,232.0 0 0 0 225.25,-55.54
z" />
<path d="M225.25,55.54 225.25,-55.54" style="stroke:red;" />
<g transform=" rotate(-90,225.25,55.54)">
<text font-size="16" font-family="Times New Roman,serif"
 x="225.25" y="55.54">Hazel</text>
</g>
</g>
<g transform="translate(300.0,300.0) rotate(256.05,0,0)">
<path style="stroke:grey; fill:thistle;"
d="M168.94,-41.65
A174.0,174.0 0 0 1 168.94,41.65
L225.25,55.54
A232.0,232.0 0 0 0 225.25,-55.54
z" />
<path d="M225.25,55.54 225.25,-55.54" style="stroke:red;" />
<g transform=" rotate(-90,225.25,55.54)">
<text font-size="16" font-family="Times New Roman,serif"
 x="225.25" y="55.54">Helen</text>
</g>
</g>
<circle cx="300.0" cy="300.0" fill="none" stroke-width="2" stroke="grey" r="58.0"/>
<circle cx="300.0" cy="300.0" fill="none" stroke-width="2" stroke="grey" r="116.0"/>
<circle cx="300.0" cy="300.0" fill="none" stroke-width="2" stroke="grey" r="174.0"/>
<circle cx="300.0" cy="300.0" fill="none" stroke-width="2" stroke="grey" r="232.0"/>
<circle cx="300.0" cy="300.0" fill="none" stroke-width="2" stroke="grey" r="290.0"/>
</svg>
