<?xml version="1.0" standalone="no"?>
<!-- generated by fan-chart.py 0.0.33 -->
<svg width="600pt" height="600pt"
 viewBox="0.00 0.00 600.00 600.00"
 version="1.1"
 xmlns="http://www.w3.org/2000/svg"
 xmlns:xlink="http://www.w3.org/1999/xlink">

<circle cx="22" cy="10"
 fill="mediumturquoise" stroke="mediumturquoise" r="10" />
<text font-size="12" x="27" y="10">mediumturquoise</text>
<circle cx="22" cy="32"
 fill="thistle" stroke="thistle" r="10" />
<text font-size="12" x="27" y="32">thistle</text>
<circle cx="22" cy="54"
 fill="mistyrose" stroke="mistyrose" r="10" />
<text font-size="12" x="27" y="54">mistyrose</text>
<circle cx="22" cy="76"
 fill="lightseagreen" stroke="lightseagreen" r="10" />
<text font-size="12" x="27" y="76">lightseagreen</text>
<circle cx="22" cy="98"
 fill="lightblue" stroke="lightblue" r="10" />
<text font-size="12" x="27" y="98">lightblue</text>
<circle cx="22" cy="120"
 fill="coral" stroke="coral" r="10" />
<text font-size="12" x="27" y="120">coral</text>
<circle cx="22" cy="142"
 fill="khaki" stroke="khaki" r="10" />
<text font-size="12" x="27" y="142">khaki</text>
<circle cx="22" cy="164"
 fill="lemonchiffon" stroke="lemonchiffon" r="10" />
<text font-size="12" x="27" y="164">lemonchiffon</text>
<circle cx="22" cy="186"
 fill="lavenderblush" stroke="lavenderblush" r="10" />
<text font-size="12" x="27" y="186">lavenderblush</text>
<circle cx="22" cy="208"
 fill="yellowgreen" stroke="yellowgreen" r="10" />
<text font-size="12" x="27" y="208">yellowgreen</text>
<circle cx="22" cy="230"
 fill="tan" stroke="tan" r="10" />
<text font-size="12" x="27" y="230">tan</text>
<circle cx="22" cy="252"
 fill="lightsteelblue" stroke="lightsteelblue" r="10" />
<text font-size="12" x="27" y="252">lightsteelblue</text>
<circle cx="22" cy="274"
 fill="salmon" stroke="salmon" r="10" />
<text font-size="12" x="27" y="274">salmon</text>
<circle cx="22" cy="296"
 fill="springgreen" stroke="springgreen" r="10" />
<text font-size="12" x="27" y="296">springgreen</text>
</svg>
