<?xml version="1.0" standalone="no"?>
<svg width="500pt" height="500pt"
 viewBox="0.00 0.00 500.00 500.00"
 version="1.1"
 xmlns="http://www.w3.org/2000/svg"
 xmlns:xlink="http://www.w3.org/1999/xlink">
<path d="M0,5 L240,5" style="stroke:red; fill:none;"/>
<text font-size="9" font-family="Times New Roman,serif"
 x="240" y="5">5</text>
<path d="M0,10 L240,10" style="stroke:red; fill:none;"/>
<path d="M0,15 L240,15" style="stroke:red; fill:none;"/>
<path d="M0,20 L240,20" style="stroke:red; fill:none;"/>
<text font-size="9" font-family="Times New Roman,serif"
 x="240" y="20">20</text>
<path d="M0,25 L240,25" style="stroke:red; fill:none;"/>
<path d="M0,30 L240,30" style="stroke:red; fill:none;"/>
<path d="M0,35 L240,35" style="stroke:red; fill:none;"/>
<text font-size="9" font-family="Times New Roman,serif"
 x="240" y="35">35</text>
<path d="M0,40 L240,40" style="stroke:red; fill:none;"/>
<path d="M0,45 L240,45" style="stroke:red; fill:none;"/>
<path d="M0,50 L240,50" style="stroke:red; fill:none;"/>
<text font-size="9" font-family="Times New Roman,serif"
 x="240" y="50">50</text>
<path d="M0,55 L240,55" style="stroke:red; fill:none;"/>
<path d="M0,60 L240,60" style="stroke:red; fill:none;"/>
<path d="M0,65 L240,65" style="stroke:red; fill:none;"/>
<text font-size="9" font-family="Times New Roman,serif"
 x="240" y="65">65</text>
<path d="M0,70 L240,70" style="stroke:red; fill:none;"/>
<path d="M0,75 L240,75" style="stroke:red; fill:none;"/>
<path d="M0,80 L240,80" style="stroke:red; fill:none;"/>
<text font-size="9" font-family="Times New Roman,serif"
 x="240" y="80">80</text>
<path d="M0,85 L240,85" style="stroke:red; fill:none;"/>
<path d="M0,90 L240,90" style="stroke:red; fill:none;"/>
<path d="M0,95 L240,95" style="stroke:red; fill:none;"/>
<text font-size="9" font-family="Times New Roman,serif"
 x="240" y="95">95</text>
<path d="M0,100 L240,100" style="stroke:red; fill:none;"/>
<path d="M0,105 L240,105" style="stroke:red; fill:none;"/>
<path d="M0,110 L240,110" style="stroke:red; fill:none;"/>
<text font-size="9" font-family="Times New Roman,serif"
 x="240" y="110">110</text>
<path d="M0,115 L240,115" style="stroke:red; fill:none;"/>
<path d="M0,120 L240,120" style="stroke:red; fill:none;"/>
<path d="M0,125 L240,125" style="stroke:red; fill:none;"/>
<text font-size="9" font-family="Times New Roman,serif"
 x="240" y="125">125</text>
<path d="M0,130 L240,130" style="stroke:red; fill:none;"/>
<path d="M0,135 L240,135" style="stroke:red; fill:none;"/>
<path d="M0,140 L240,140" style="stroke:red; fill:none;"/>
<text font-size="9" font-family="Times New Roman,serif"
 x="240" y="140">140</text>
<path d="M0,145 L240,145" style="stroke:red; fill:none;"/>
<path d="M0,150 L240,150" style="stroke:red; fill:none;"/>
<path d="M0,155 L240,155" style="stroke:red; fill:none;"/>
<text font-size="9" font-family="Times New Roman,serif"
 x="240" y="155">155</text>
<path d="M0,160 L240,160" style="stroke:red; fill:none;"/>
<path d="M0,165 L240,165" style="stroke:red; fill:none;"/>
<path d="M0,170 L240,170" style="stroke:red; fill:none;"/>
<text font-size="9" font-family="Times New Roman,serif"
 x="240" y="170">170</text>
<path d="M0,175 L240,175" style="stroke:red; fill:none;"/>
<path d="M0,180 L240,180" style="stroke:red; fill:none;"/>
<path d="M0,185 L240,185" style="stroke:red; fill:none;"/>
<text font-size="9" font-family="Times New Roman,serif"
 x="240" y="185">185</text>
<path d="M0,190 L240,190" style="stroke:red; fill:none;"/>
<path d="M0,195 L240,195" style="stroke:red; fill:none;"/>
<path d="M0,200 L240,200" style="stroke:red; fill:none;"/>
<text font-size="9" font-family="Times New Roman,serif"
 x="240" y="200">200</text>
<path d="M0,205 L240,205" style="stroke:red; fill:none;"/>
<path d="M0,210 L240,210" style="stroke:red; fill:none;"/>
<path d="M0,215 L240,215" style="stroke:red; fill:none;"/>
<text font-size="9" font-family="Times New Roman,serif"
 x="240" y="215">215</text>
<path d="M0,220 L240,220" style="stroke:red; fill:none;"/>
<path d="M0,225 L240,225" style="stroke:red; fill:none;"/>
<path d="M0,230 L240,230" style="stroke:red; fill:none;"/>
<text font-size="9" font-family="Times New Roman,serif"
 x="240" y="230">230</text>
<path d="M0,235 L240,235" style="stroke:red; fill:none;"/>
<path d="M0,240 L240,240" style="stroke:red; fill:none;"/>
<path d="M0,245 L240,245" style="stroke:red; fill:none;"/>
<text font-size="9" font-family="Times New Roman,serif"
 x="240" y="245">245</text>
<path d="M0,250 L240,250" style="stroke:red; fill:none;"/>
<text font-size="9" font-family="Times New Roman,serif"
 x="2" y="15">S</text>
<text font-size="9" font-family="Times New Roman,serif"
 x="2" y="24">9</text>
<text font-size="12" font-family="Times New Roman,serif"
 x="16" y="20">S</text>
<text font-size="12" font-family="Times New Roman,serif"
 x="16" y="32">12</text>
<text font-size="16" font-family="Times New Roman,serif"
 x="33" y="30">S</text>
<text font-size="16" font-family="Times New Roman,serif"
 x="33" y="46">16</text>
<text font-size="20" font-family="Times New Roman,serif"
 x="54" y="45">S</text>
<text font-size="20" font-family="Times New Roman,serif"
 x="54" y="65">20</text>
<text font-size="25" font-family="Times New Roman,serif"
 x="79" y="65">S</text>
<text font-size="25" font-family="Times New Roman,serif"
 x="79" y="90">25</text>
<text font-size="30" font-family="Times New Roman,serif"
 x="109" y="90">S</text>
<text font-size="30" font-family="Times New Roman,serif"
 x="109" y="120">30</text>
<text font-size="35" font-family="Times New Roman,serif"
 x="144" y="120">S</text>
<text font-size="35" font-family="Times New Roman,serif"
 x="144" y="155">35</text>
<text font-size="40" font-family="Times New Roman,serif"
 x="184" y="155">S</text>
<text font-size="40" font-family="Times New Roman,serif"
 x="184" y="195">40</text>
</svg>
