<?xml version="1.0" standalone="no"?>
<svg width="800" height="500" version="1.1"
     xmlns="http://www.w3.org/2000/svg"
	 xmlns:xlink="http://www.w3.org/1999/xlink" >

<path id="vline" d="M0,0 l0,400" style="stroke:red;" />

<g transform="translate(1,1)"><use xlink:href="#vline" /><text font-size="12" x="-2" y="414">0</text></g>
<g transform="translate(30,1)"><use xlink:href="#vline" /><text font-size="12" x="-2" y="414">30</text></g>
<g transform="translate(60,1)"><use xlink:href="#vline" /><text font-size="12" x="-2" y="414">60</text></g>
<g transform="translate(90,1)"><use xlink:href="#vline" /><text font-size="12" x="-2" y="414">90</text></g>
<g transform="translate(120,1)"><use xlink:href="#vline" /><text font-size="12" x="-2" y="414">120</text></g>
<g transform="translate(150,1)"><use xlink:href="#vline" /><text font-size="12" x="-2" y="414">150</text></g>
<g transform="translate(180,1)"><use xlink:href="#vline" /><text font-size="12" x="-2" y="414">180</text></g>
<g transform="translate(210,1)"><use xlink:href="#vline" /><text font-size="12" x="-2" y="414">210</text></g>
<g transform="translate(240,1)"><use xlink:href="#vline" /><text font-size="12" x="-2" y="414">240</text></g>
<g transform="translate(270,1)"><use xlink:href="#vline" /><text font-size="12" x="-2" y="414">270</text></g>
<g transform="translate(300,1)"><use xlink:href="#vline" /><text font-size="12" x="-2" y="414">300</text></g>
<g transform="translate(330,1)"><use xlink:href="#vline" /><text font-size="12" x="-2" y="414">330</text></g>
<g transform="translate(360,1)"><use xlink:href="#vline" /><text font-size="12" x="-2" y="414">360</text></g>
<g transform="translate(390,1)"><use xlink:href="#vline" /><text font-size="12" x="-2" y="414">390</text></g>
<g transform="translate(420,1)"><use xlink:href="#vline" /><text font-size="12" x="-2" y="414">420</text></g>
<g transform="translate(450,1)"><use xlink:href="#vline" /><text font-size="12" x="-2" y="414">450</text></g>
<g transform="translate(480,1)"><use xlink:href="#vline" /><text font-size="12" x="-2" y="414">480</text></g>
<g transform="translate(510,1)"><use xlink:href="#vline" /><text font-size="12" x="-2" y="414">510</text></g>
<g transform="translate(550,1)"><use xlink:href="#vline" /><text font-size="12" x="-2" y="414">550</text></g>
<g transform="translate(600,1)"><use xlink:href="#vline" /><text font-size="12" x="-2" y="414">600</text></g>
<g transform="translate(650,1)"><use xlink:href="#vline" /><text font-size="12" x="-2" y="414">650</text></g>
<g transform="translate(700,1)"><use xlink:href="#vline" /><text font-size="12" x="-2" y="414">700</text></g>
<g transform="translate(750,1)"><use xlink:href="#vline" /><text font-size="12" x="-2" y="414">750</text></g>
<g transform="translate(800,1)"><use xlink:href="#vline" /><text font-size="12" x="-2" y="414">800</text></g>
<g transform="translate(850,1)"><use xlink:href="#vline" /><text font-size="12" x="-2" y="414">850</text></g>
<g transform="translate(900,1)"><use xlink:href="#vline" /><text font-size="12" x="-2" y="414">900</text></g>

<text y="10" font-size="9" x="1" font-family="Times New Roman,serif">zzzzzzzzzzzzzzzzzzzzzzzzzz 9</text>
<text y="25" font-size="12" x="1" font-family="Times New Roman,serif">zzzzzzzzzzzzzzzzzzzzzzzzzz 12</text>
<text y="50" font-size="20" x="1" font-family="Times New Roman,serif">zzzzzzzzzzzzzzzzzzzzzzzzzz 20</text>
<text y="80" font-size="25" x="1" font-family="Times New Roman,serif">zzzzzzzzzzzzzzzzzzzzzzzzzz 25</text>
<text y="100" font-size="30" x="1" font-family="Times New Roman,serif">zzzzzzzzzzzzzzzzzzzzzzzzzz 30</text>
<text y="140" font-size="35" x="1" font-family="Times New Roman,serif">zzzzzzzzzzzzzzzzzzzzzzzzzz 35</text>
<text y="180" font-size="40" x="1" font-family="Times New Roman,serif">zzzzzzzzzzzzzzzzzzzzzzzzzz 40</text>

<text y="210" font-size="9" x="1" font-family="Times New Roman,serif">ZZZZZZZZZZZZZZZZZZZZZZZZZZ 9</text>
<text y="225" font-size="12" x="1" font-family="Times New Roman,serif">ZZZZZZZZZZZZZZZZZZZZZZZZZZ 12</text>
<text y="250" font-size="20" x="1" font-family="Times New Roman,serif">ZZZZZZZZZZZZZZZZZZZZZZZZZZ 20</text>
<text y="280" font-size="25" x="1" font-family="Times New Roman,serif">ZZZZZZZZZZZZZZZZZZZZZZZZZZ 25</text>
<text y="300" font-size="30" x="1" font-family="Times New Roman,serif">ZZZZZZZZZZZZZZZZZZZZZZZZZZ 30</text>
<text y="340" font-size="35" x="1" font-family="Times New Roman,serif">ZZZZZZZZZZZZZZZZZZZZZZZZZZ 35</text>
<text y="380" font-size="40" x="1" font-family="Times New Roman,serif">ZZZZZZZZZZZZZZZZZZZZZZZZZZ 40</text>

</svg>

